<svg xmlns="http://www.w3.org/2000/svg" xmlns:xlink="http://www.w3.org/1999/xlink" width="500" zoomAndPan="magnify" viewBox="0 0 375 374.999991" height="500" preserveAspectRatio="xMidYMid meet" version="1.0"><path fill="#1172b8" d="M 64.972656 325.699219 L 40.503906 19.839844 L 334.128906 19.839844 L 309.660156 325.699219 L 187.316406 362.402344 Z M 64.972656 325.699219 " fill-opacity="1" fill-rule="nonzero"/><path fill="#33aadd" d="M 309.660156 44.308594 L 187.316406 44.308594 L 187.316406 344.050781 L 285.191406 313.464844 Z M 309.660156 44.308594 " fill-opacity="1" fill-rule="nonzero"/><path fill="#ffffff" d="M 230.136719 197.238281 L 107.792969 197.238281 L 101.675781 154.417969 L 199.550781 123.832031 L 101.675781 123.832031 L 95.558594 87.128906 L 285.191406 87.128906 L 279.074219 129.949219 L 199.550781 160.535156 L 272.957031 160.535156 L 260.722656 276.761719 L 187.316406 301.230469 L 113.910156 276.761719 L 107.792969 215.589844 L 144.496094 215.589844 L 150.613281 246.175781 L 187.316406 258.410156 L 224.019531 246.175781 Z M 230.136719 197.238281 " fill-opacity="1" fill-rule="nonzero"/></svg>