<svg xmlns="http://www.w3.org/2000/svg" xmlns:xlink="http://www.w3.org/1999/xlink" width="500" zoomAndPan="magnify" viewBox="0 0 375 374.999991" height="500" preserveAspectRatio="xMidYMid meet" version="1.0"><path fill="#e44f26" d="M 62.34375 326.417969 L 34.484375 13.96875 L 340.605469 13.96875 L 312.707031 326.371094 L 187.359375 361.125 Z M 62.34375 326.417969 " fill-opacity="1" fill-rule="nonzero"/><path fill="#f1662a" d="M 187.546875 334.566406 L 288.839844 306.484375 L 312.671875 39.519531 L 187.546875 39.519531 Z M 187.546875 334.566406 " fill-opacity="1" fill-rule="nonzero"/><path fill="#ebebeb" d="M 187.546875 155.394531 L 136.835938 155.394531 L 133.339844 116.15625 L 187.546875 116.15625 L 187.546875 77.832031 L 91.457031 77.832031 L 92.375 88.121094 L 101.785156 193.71875 L 187.546875 193.71875 Z M 187.546875 155.394531 " fill-opacity="1" fill-rule="nonzero"/><path fill="#ebebeb" d="M 187.546875 254.917969 L 187.371094 254.96875 L 144.695312 243.449219 L 141.96875 212.886719 L 103.496094 212.886719 L 108.863281 273.042969 L 187.371094 294.839844 L 187.546875 294.792969 Z M 187.546875 254.917969 " fill-opacity="1" fill-rule="nonzero"/><path fill="#ffffff" d="M 187.410156 155.394531 L 187.410156 193.71875 L 234.597656 193.71875 L 230.160156 243.425781 L 187.410156 254.957031 L 187.410156 294.828125 L 265.976562 273.042969 L 266.546875 266.574219 L 275.550781 165.6875 L 276.492188 155.394531 Z M 187.410156 155.394531 " fill-opacity="1" fill-rule="nonzero"/><path fill="#ffffff" d="M 187.410156 77.832031 L 187.410156 116.15625 L 279.976562 116.15625 L 280.742188 107.550781 L 282.492188 88.121094 L 283.410156 77.832031 Z M 187.410156 77.832031 " fill-opacity="1" fill-rule="nonzero"/></svg>