<?xml version="1.0" encoding="UTF-8"?>
<svg version="1.1" xmlns="http://www.w3.org/2000/svg" width="500" height="500">
<path d="M0 0 C1.14554812 -0.00297112 2.29109624 -0.00594224 3.47135794 -0.0090034 C7.30705408 -0.01766963 11.14271893 -0.01919692 14.97842407 -0.02069092 C17.73016543 -0.02478476 20.48190354 -0.03032529 23.23364258 -0.03573608 C30.70933609 -0.04929292 38.18502422 -0.05534047 45.66072798 -0.05974674 C50.33525804 -0.0625146 55.00978605 -0.06675303 59.68431473 -0.07125092 C72.644748 -0.08344192 85.60517963 -0.0937404 98.56561852 -0.09712601 C99.39446249 -0.09734557 100.22330646 -0.09756514 101.07726691 -0.09779136 C102.32340065 -0.09811878 102.32340065 -0.09811878 103.5947088 -0.09845281 C105.27795243 -0.09889626 106.96119607 -0.09934282 108.6444397 -0.09979248 C109.89684306 -0.10012463 109.89684306 -0.10012463 111.17454751 -0.10046348 C124.68414969 -0.1044061 138.19369776 -0.12184448 151.70327906 -0.145152 C165.59708737 -0.16892738 179.4908686 -0.18133073 193.38469756 -0.18249393 C201.17586123 -0.18340741 208.96695445 -0.18907657 216.7580986 -0.20731354 C223.39667595 -0.22279852 230.03516107 -0.22778605 236.67375307 -0.21957543 C240.0541637 -0.21569785 243.43423984 -0.21812378 246.81465149 -0.23063278 C279.17901825 -0.34330497 308.25869904 5.32093444 332.37930298 28.51544189 C350.05592789 47.17592348 361.06027599 70.01242299 360.97898865 95.89395142 C360.98704661 97.10885148 360.99510456 98.32375154 361.0034067 99.57546675 C361.0225423 102.9075943 361.02862037 106.23925715 361.02886093 109.5714066 C361.03238005 113.18011826 361.05308749 116.78873931 361.0715332 120.3973999 C361.10486923 127.44922526 361.12246261 134.5010042 361.13446067 141.55289476 C361.14896326 149.77178925 361.17856073 157.99060922 361.20855363 166.20945926 C361.26148884 180.87344368 361.29979128 195.5374303 361.33023071 210.20147705 C361.35975302 224.42158548 361.40121331 238.64159666 361.45523071 252.8616333 C361.51411229 268.36666494 361.56666112 283.87169271 361.60795802 299.37678206 C361.61236718 301.03006403 361.61677817 302.683346 361.62119102 304.33662796 C361.6233516 305.14998477 361.62551217 305.96334159 361.62773821 306.80134558 C361.64333216 312.52747395 361.66327099 318.2535778 361.68476295 323.97968674 C361.71075348 330.95507267 361.72931784 337.93043301 361.73851512 344.90586202 C361.74336814 348.46322763 361.75140841 352.02050793 361.76821327 355.5778389 C361.78631287 359.43484956 361.78871005 363.2917791 361.78953552 367.14883423 C361.79720579 368.27129748 361.80487607 369.39376073 361.81277877 370.55023801 C361.80006532 376.16328766 361.4442886 380.8408735 359.56680298 386.14044189 C359.21522238 387.45450237 358.86678376 388.76941498 358.52383423 390.08575439 C354.71097227 404.2247674 348.62578505 418.37778166 337.89492798 428.75762939 C336.30276849 430.21740686 336.30276849 430.21740686 335.56680298 433.14044189 C332.10242637 436.38110415 328.31017017 439.22998574 324.56680298 442.14044189 C323.68121704 442.84040283 322.7956311 443.54036377 321.88320923 444.26153564 C303.97725459 457.91050255 282.65583121 464.52749556 260.2638092 464.35644531 C259.07315245 464.35548174 257.8824957 464.35451817 256.65575844 464.3535254 C253.38198041 464.34881467 250.1083902 464.33508082 246.8346616 464.31734824 C243.29204407 464.30038791 239.74940564 464.29522404 236.20675659 464.28849792 C229.27926449 464.27344967 222.35185546 464.2474569 215.42441349 464.21748224 C209.79214265 464.19331745 204.15987058 464.17318253 198.52757454 464.15589142 C197.72432204 464.15342252 196.92106953 464.15095363 196.09347605 464.14840992 C194.46142326 464.14341176 192.82937045 464.13842319 191.19731761 464.1334441 C175.91393268 464.08635416 160.63061547 464.02685557 145.34729249 463.963038 C132.24673701 463.9086186 119.14618068 463.864677 106.04556274 463.82843018 C90.81331094 463.78627975 75.58110171 463.73774375 60.34890419 463.67899251 C58.72334138 463.67273912 57.09777853 463.6664934 55.47221565 463.66025543 C54.67251155 463.65718277 53.87280745 463.65411011 53.04886989 463.65094434 C47.42588722 463.62977245 41.80290167 463.61312187 36.17989922 463.59822845 C29.32381043 463.57994026 22.46779049 463.55458472 15.61176234 463.52030125 C12.11685456 463.50299828 8.6220096 463.4887771 5.12706184 463.48314476 C1.33220749 463.47532339 -2.4623984 463.45536183 -6.25718689 463.43237305 C-7.35282111 463.43294354 -8.44845533 463.43351404 -9.57729059 463.43410182 C-19.19519225 463.35262005 -27.89757504 461.62229215 -36.93319702 458.39044189 C-37.66296753 458.1323877 -38.39273804 457.8743335 -39.1446228 457.60845947 C-44.31386586 455.71253559 -48.95001832 453.39321382 -53.55038452 450.33966064 C-55.52477602 448.97495655 -55.52477602 448.97495655 -58.43319702 448.14044189 C-58.43319702 447.48044189 -58.43319702 446.82044189 -58.43319702 446.14044189 C-59.13057983 445.92001221 -59.82796265 445.69958252 -60.54647827 445.47247314 C-64.1327672 443.81763617 -66.77012664 441.49995211 -69.62069702 438.82794189 C-70.18732056 438.2995874 -70.75394409 437.77123291 -71.33773804 437.22686768 C-89.1972753 420.14339524 -101.63928136 396.42220489 -102.52821028 371.47383249 C-102.57021292 368.4525082 -102.58089103 365.43261324 -102.58036804 362.41099548 C-102.58404473 361.25768811 -102.58772142 360.10438073 -102.59150952 358.91612464 C-102.60248943 355.0660064 -102.60638053 351.2159152 -102.61019897 347.36578369 C-102.61594132 344.59891025 -102.62310313 341.83204077 -102.63011169 339.06517029 C-102.64980539 330.77361361 -102.65993324 322.48205583 -102.66883948 314.19048163 C-102.673234 310.27552937 -102.67859776 306.36057843 -102.68382835 302.44562721 C-102.70083347 289.41392008 -102.71532462 276.38221376 -102.7225771 263.35049725 C-102.72448665 259.97440782 -102.72640703 256.5983184 -102.72836304 253.222229 C-102.72884678 252.38323013 -102.72933052 251.54423126 -102.72982892 250.67980818 C-102.73811814 237.10767724 -102.76343952 223.53563474 -102.79594371 209.96354236 C-102.82911892 195.99620585 -102.84703526 182.02891413 -102.85022134 168.06153804 C-102.85237677 160.2328354 -102.8609826 152.40426174 -102.88668251 144.57559776 C-102.90853304 137.90456562 -102.91637021 131.23369383 -102.90671573 124.56262996 C-102.902212 121.16756881 -102.90606685 117.77310216 -102.92347717 114.37804413 C-103.09307247 79.31928446 -95.65717577 52.35459792 -71.06600952 26.66778564 C-56.47451101 12.73953707 -38.19093907 4.47336197 -18.43319702 1.14044189 C-17.44761999 0.96713978 -16.46204296 0.79383766 -15.44659996 0.61528397 C-10.31589597 -0.10470522 -5.17124845 -0.00420629 0 0 Z " fill="#F6DE1D" transform="translate(120.43319702148438,17.85955810546875)"/>
<path d="M0 0 C7.19445183 5.48148711 13.55828341 12.27824566 17.953125 20.25 C17.72315716 22.89934659 17.32078978 23.93493567 15.28588867 25.67871094 C14.57150635 26.10958008 13.85712402 26.54044922 13.12109375 26.984375 C12.32759521 27.47260742 11.53409668 27.96083984 10.71655273 28.46386719 C9.86649658 28.97079102 9.01644043 29.47771484 8.140625 30 C6.40542447 31.06115126 4.67104936 32.12365344 2.9375 33.1875 C2.08736328 33.70570313 1.23722656 34.22390625 0.36132812 34.7578125 C-3.81545525 37.34585994 -7.85068728 40.13145251 -11.89453125 42.921875 C-14.046875 44.25 -14.046875 44.25 -16.046875 44.25 C-17.34375 42.45703125 -17.34375 42.45703125 -18.796875 40.0625 C-22.79159984 33.88618999 -27.17599354 30.13029925 -34.046875 27.25 C-36.84944517 26.78992896 -39.58542529 26.72522066 -42.421875 26.75 C-43.17557373 26.75572021 -43.92927246 26.76144043 -44.70581055 26.76733398 C-50.54979182 26.95556329 -54.90195647 27.84811886 -59.046875 32.25 C-62.89993006 36.6249386 -63.69169212 41.01117783 -63.4296875 46.7578125 C-62.45396485 53.10996605 -59.70116563 57.04851275 -54.71142578 61.04711914 C-52.05371627 62.96770212 -49.2407742 64.3759029 -46.296875 65.8125 C-45.29551514 66.30459961 -45.29551514 66.30459961 -44.27392578 66.80664062 C-38.67504805 69.53102252 -33.00807986 72.10493342 -27.34301758 74.68798828 C-3.32763062 85.65283848 19.0905053 96.87275029 28.98828125 122.98046875 C34.04448654 139.65418758 31.78663597 158.89465622 23.953125 174.25 C13.91231781 190.15003134 -2.21749854 198.53302642 -20.0546875 203.00390625 C-45.04559248 207.66931018 -72.53898165 204.14983806 -94.046875 190.25 C-104.82039962 182.61467131 -113.68539802 172.87894199 -120.046875 161.25 C-120.046875 160.59 -120.046875 159.93 -120.046875 159.25 C-118.35884766 158.32380859 -118.35884766 158.32380859 -116.63671875 157.37890625 C-115.08567508 156.52391338 -113.53491462 155.66840662 -111.984375 154.8125 C-111.17468262 154.36672607 -110.36499023 153.92095215 -109.53076172 153.46166992 C-105.51762972 151.23681969 -101.54701779 148.97402945 -97.65234375 146.546875 C-96.97888916 146.12849365 -96.30543457 145.7101123 -95.61157227 145.27905273 C-94.34088568 144.48209474 -93.076708 143.674641 -91.82006836 142.85571289 C-87.6652456 140.25331863 -87.6652456 140.25331863 -84.86328125 140.23828125 C-82.3688189 141.62766996 -81.06237915 143.34201396 -79.359375 145.625 C-78.75738281 146.41648437 -78.15539062 147.20796875 -77.53515625 148.0234375 C-76.046875 150.25 -76.046875 150.25 -75.046875 153.25 C-73.20450107 154.30700974 -73.20450107 154.30700974 -71.046875 155.25 C-69.66298863 156.21656655 -68.28844911 157.1966077 -66.921875 158.1875 C-55.59462854 165.64779597 -41.63905887 166.03459235 -28.51953125 163.59375 C-21.50131924 161.36024494 -17.58965221 157.57888023 -13.91796875 151.328125 C-12.03136213 146.8273415 -12.38818831 141.72118026 -13.62890625 137.06640625 C-17.80935861 127.27383975 -28.29230148 122.81372936 -37.484375 118.8125 C-38.53189941 118.34368408 -39.57942383 117.87486816 -40.65869141 117.3918457 C-45.51356912 115.22405367 -50.38755691 113.10054128 -55.26171875 110.9765625 C-76.62827158 101.64824355 -94.96039078 89.85479749 -104.234375 67.55859375 C-109.16989595 53.53507028 -109.04975485 35.83639966 -103.046875 22.25 C-95.48602182 6.48189945 -83.36615 -3.47298059 -67.109375 -9.75 C-45.1384954 -16.68377569 -18.71744117 -13.35192138 0 0 Z " fill="#010100" transform="translate(414.046875,240.75)"/>
<path d="M0 0 C14.19 0 28.38 0 43 0 C43.06789734 20.58508052 43.12308638 41.17006943 43.15543652 61.75523376 C43.17086099 71.31472807 43.19186531 80.87414752 43.22631836 90.43359375 C43.25635678 98.7721668 43.27560706 107.11068559 43.28226548 115.44931126 C43.28615344 119.85859971 43.29519688 124.26773303 43.31719017 128.67697144 C43.33778439 132.84005323 43.34378829 137.00291824 43.33932304 141.16604614 C43.34013812 142.68159164 43.34596567 144.19714555 43.35761642 145.71264648 C43.50453211 165.83619009 40.18618043 183.71349515 25.58203125 198.66796875 C19.41025834 204.24217212 12.5479348 207.34178802 4.875 210.3125 C4.21806152 210.56749268 3.56112305 210.82248535 2.88427734 211.08520508 C-15.83713262 217.93912122 -38.95990455 214.69652665 -56.7109375 206.79296875 C-70.08368541 200.14491213 -78.88265023 189.84842238 -86 177 C-86.33 176.01 -86.66 175.02 -87 174 C-83.16137327 171.64803566 -79.32014252 169.30039941 -75.4765625 166.95654297 C-74.17247321 166.16049439 -72.86907189 165.36331754 -71.56640625 164.56494141 C-64.83639359 160.44126033 -58.15424124 156.36032543 -51 153 C-50.443125 153.94101562 -49.88625 154.88203125 -49.3125 155.8515625 C-42.35776597 167.33607255 -42.35776597 167.33607255 -31 174 C-19.29610083 174.98173183 -19.29610083 174.98173183 -8.4765625 171.328125 C-3.26300453 166.63868132 -1.2784209 159.50816772 -0.73828697 152.70235538 C-0.72999084 150.98643775 -0.72999084 150.98643775 -0.7215271 149.2358551 C-0.7157347 148.59283996 -0.7099423 147.94982482 -0.70397437 147.28732437 C-0.68709794 145.15316725 -0.68410868 143.01922799 -0.68115234 140.88500977 C-0.6718456 139.34704567 -0.66167582 137.80908659 -0.65071106 136.27113342 C-0.62348106 132.11053422 -0.60828247 127.94996875 -0.59528303 123.78930402 C-0.57962178 119.43574497 -0.55284113 115.08225448 -0.5272522 110.72874451 C-0.48051735 102.49124948 -0.44374765 94.25374149 -0.41057932 86.01618189 C-0.37232049 76.6352608 -0.32292019 67.25440867 -0.27259517 57.87354577 C-0.16935404 38.58240848 -0.0815389 19.29124207 0 0 Z " fill="#000000" transform="translate(227,231)"/>
</svg>
