<?xml version="1.0" encoding="UTF-8"?>
<svg version="1.1" xmlns="http://www.w3.org/2000/svg" width="500" height="500">
<path d="M0 0 C141.57 0 283.14 0 429 0 C429 5.73796937 428.9156078 11.06885224 428.40933323 16.73084641 C428.31354532 17.82051455 428.31354532 17.82051455 428.21582231 18.9321962 C428.0023495 21.34957812 427.78323026 23.76641324 427.56410217 26.18328857 C427.40773398 27.94050268 427.25171466 29.69774785 427.09601301 31.45502114 C426.66827198 36.27102818 426.23556477 41.08657793 425.80202544 45.90206599 C425.33491433 51.10015957 424.87240849 56.29866316 424.40931702 61.49711609 C423.5019283 71.67470312 422.59026012 81.85190247 421.67710669 92.02897373 C420.6141281 103.87739855 419.55519826 115.72618416 418.49638932 127.5749822 C416.60746423 148.71158379 414.71457503 169.84782854 412.81958008 190.98388672 C410.98003437 211.50149764 409.14371284 232.01939393 407.31079102 252.53759766 C405.31513363 274.8774535 403.3177639 297.21715495 401.31734079 319.5565846 C401.10415782 321.93729221 400.89097539 324.31799987 400.6777935 326.69870758 C400.52045029 328.4557902 400.52045029 328.4557902 400.35992842 330.24836944 C399.62008233 338.51155341 398.88141951 346.77484266 398.14317513 355.03816986 C397.24398648 365.1024009 396.34279511 375.16645028 395.43904931 385.23027316 C394.97781684 390.36690945 394.51746313 395.50362048 394.05947113 400.6405468 C393.64049933 405.33950392 393.21900888 410.03822794 392.7954753 414.73677602 C392.64241645 416.43972921 392.49028812 418.14276633 392.33916653 419.84589252 C392.13413503 422.15500268 391.92575209 424.4637865 391.71650791 426.77251816 C391.60145265 428.05679003 391.48639739 429.34106189 391.36785561 430.66425109 C391.05530821 433.49846004 390.61805614 436.2190186 390 439 C362.3877961 446.82496116 334.74258542 454.52632098 307.07879639 462.16674805 C301.06105978 463.82914794 295.04382766 465.49337349 289.02655602 467.15745544 C284.10103406 468.51933545 279.17509049 469.87965286 274.24819946 471.23657227 C265.58162429 473.62410604 256.917185 476.01780175 248.26440907 478.45495605 C244.55437939 479.49914076 240.84253246 480.53677089 237.13046074 481.57366943 C235.39518031 482.06034355 233.66079288 482.55021481 231.92738533 483.04351807 C229.54681678 483.72078152 227.16339122 484.38693329 224.77905273 485.05078125 C224.08979895 485.25007736 223.40054516 485.44937347 222.69040489 485.65470886 C215.36653612 487.6683402 209.40320016 487.12768998 202.19726562 485.05419922 C201.44377555 484.84526787 200.69028547 484.63633652 199.91396236 484.42107391 C197.40891825 483.72415127 194.90768934 483.01443004 192.40625 482.3046875 C190.61285894 481.80304295 188.81923835 481.30221837 187.02540588 480.80215454 C182.18593374 479.45072324 177.34960107 478.0883595 172.51375198 476.72402954 C167.47641333 475.3049183 162.43623331 473.8959773 157.39624023 472.48632812 C150.12807508 470.45257011 142.86080034 468.4156843 135.59463787 466.37478256 C122.59065641 462.72243443 109.58037686 459.09314261 96.56640625 455.4765625 C94.71458838 454.96182631 92.86277156 454.44708636 91.01095581 453.93234253 C87.43246413 452.93771737 83.8539358 451.94322416 80.27539062 450.9487915 C72.73698704 448.85381942 65.19891597 446.75765871 57.66175652 444.65821457 C56.17722415 444.24484226 54.69261312 443.83175234 53.20791817 443.41896439 C51.19318395 442.85879048 49.1787122 442.29768255 47.16430664 441.73632812 C46.0390004 441.42312622 44.91369415 441.10992432 43.75428772 440.78723145 C41.82313765 440.23526948 39.90541396 439.63513799 38 439 C36.65246197 427.23002047 35.44622212 415.45683769 34.39279175 403.65710449 C34.24272923 401.99208931 34.09250476 400.32708873 33.94213498 398.66210127 C33.53447774 394.14283986 33.12917473 389.62337012 32.72432113 385.1038568 C32.28534188 380.20795664 31.84417479 375.3122535 31.40335083 370.41651917 C30.34259367 358.63022874 29.28552559 346.8436086 28.22896594 335.05694127 C27.83026672 330.6097975 27.43132826 326.16267521 27.03237977 321.71555379 C25.27124754 302.08393702 23.51119449 282.45222382 21.75428581 262.82022858 C21.32561935 258.03037951 20.8969478 253.2405309 20.46826172 248.45068359 C20.36173059 247.26036646 20.25519946 246.07004932 20.14544012 244.84366196 C18.41798804 225.54419366 16.68376535 206.24534002 14.94673429 186.94673175 C13.15978446 167.09229174 11.37887107 147.2373175 9.60384572 127.3818078 C8.60852829 116.24981686 7.61060824 105.11807295 6.6059227 93.98692322 C5.75088963 84.51360157 4.90135295 75.03980694 4.05886112 65.56536138 C3.6294734 60.73844684 3.19757102 55.91179416 2.75859833 51.08574104 C2.35575457 46.65620314 1.9604755 42.22605348 1.57086624 37.79533249 C1.42969514 36.20446384 1.28590304 34.61382477 1.13901614 33.02347368 C1.07100043 32.28554002 1.00298473 31.54760636 0.93290794 30.78731108 C0.87363482 30.15353291 0.81436171 29.51975475 0.75329243 28.86677119 C-0.04577131 19.08075346 0 9.96375894 0 0 Z " fill="#E44D26" transform="translate(36,6)"/>
<path d="M0 0 C88.77 0 177.54 0 269 0 C269 18.04931516 266.67178838 36.02827495 265 54 C197.02 54 129.04 54 59 54 C59.33 54.66 59.66 55.32 60 56 C60.20213837 57.44094859 60.35465902 58.8890358 60.48071289 60.33862305 C60.56072037 61.23683273 60.64072784 62.13504242 60.72315979 63.06047058 C60.80549362 64.03438248 60.88782745 65.00829437 60.97265625 66.01171875 C61.06002548 67.01330521 61.14739471 68.01489166 61.2374115 69.04682922 C61.42172586 71.17094145 61.60400543 73.29523105 61.78442383 75.41967773 C62.05992372 78.65722475 62.34292728 81.89405046 62.62695312 85.13085938 C62.8051391 87.19527357 62.98288744 89.2597256 63.16015625 91.32421875 C63.24451431 92.28800949 63.32887238 93.25180023 63.41578674 94.24479675 C63.49264206 95.15876724 63.56949738 96.07273773 63.64868164 97.0144043 C63.71672501 97.81001266 63.78476837 98.60562103 63.85487366 99.42533875 C64.034508 102.61220037 64 105.80807965 64 109 C128.68 109 193.36 109 260 109 C257.71062989 139.90649649 257.71062989 139.90649649 256.64442825 151.07219315 C256.43616134 153.25397553 256.23148008 155.43607446 256.0274353 157.61825562 C255.73342955 160.76013458 255.43828839 163.90190323 255.14212036 167.0435791 C252.62500167 193.76649769 250.22757313 220.4961757 248.0625 247.25 C247.9816044 248.24925632 247.9816044 248.24925632 247.89907455 249.26869965 C247.25923884 257.17859275 246.62571284 265.08897733 246 273 C241.26471032 275.07761055 236.87948328 276.64319617 231.8125 277.8125 C225.46727109 279.32212318 219.23481768 281.0865086 213 283 C205.74888133 285.2199547 198.4964138 287.15409344 191.125 288.9375 C185.50143478 290.34339131 179.97831271 292.08809212 174.43725586 293.78466797 C167.90260312 295.7696718 161.33577502 297.46109477 154.6953125 299.05078125 C150.03225787 300.24858492 145.50267104 301.7592398 140.96484375 303.36328125 C133.61665254 304.9413513 125.67767985 301.74359233 118.5625 299.875 C117.36818359 299.56369141 116.17386719 299.25238281 114.94335938 298.93164062 C106.27174397 296.65011979 97.66526035 294.1856452 89.0715332 291.62866211 C81.50542419 289.39431211 73.89443651 287.38538704 66.25 285.4375 C51.99747327 281.80071841 37.93563411 277.70681895 24 273 C21.66666667 245 19.33333333 217 17 189 C34.82 189 52.64 189 71 189 C73.25 205.875 73.25 205.875 73.8515625 211.58984375 C74.04492188 213.41225586 74.04492188 213.41225586 74.2421875 215.27148438 C74.36851562 216.48126953 74.49484375 217.69105469 74.625 218.9375 C74.82609375 220.83918945 74.82609375 220.83918945 75.03125 222.77929688 C75.3559846 225.85267792 75.67888481 228.92623906 76 232 C77.10734497 232.27094482 77.10734497 232.27094482 78.23706055 232.54736328 C92.46753884 236.039627 106.64153342 239.62685033 120.70703125 243.73828125 C121.4438916 243.95049316 122.18075195 244.16270508 122.93994141 244.38134766 C124.81412092 244.944179 126.6649379 245.58337646 128.51171875 246.23046875 C135.93839119 247.86882762 143.2753086 245.62351924 150.5 243.75 C151.36657227 243.52965088 152.23314453 243.30930176 153.12597656 243.08227539 C159.39713739 241.46748014 165.60913026 239.68648965 171.80834961 237.81665039 C179.14127636 235.61895869 186.55932602 233.79257152 194 232 C195.97244076 214.03239657 197.6291787 196.06349115 198.99731445 178.0402832 C199.05710983 177.26836639 199.11690521 176.49644958 199.17851257 175.70114136 C199.2906373 174.25217075 199.3999565 172.8029792 199.50593567 171.35354614 C199.7599483 168.08906138 200.20119501 165.19521997 201 162 C139.29 162 77.58 162 14 162 C13.34 152.76 12.68 143.52 12 134 C11.57710983 129.00099775 11.14503209 124.00887572 10.66796875 119.015625 C10.55106689 117.7632605 10.43416504 116.510896 10.3137207 115.22058105 C10.00441218 111.91022396 9.69262587 108.60011262 9.37981796 105.29008484 C8.84664496 99.63425244 8.32185674 93.9776301 7.7953434 88.32117462 C7.59395118 86.15841046 7.39222598 83.99567754 7.19047546 81.83294678 C5.82125709 67.14173796 4.49869037 52.4465007 3.1875 37.75 C3.08263275 36.57876587 2.9777655 35.40753174 2.86972046 34.20080566 C2.57236607 30.87874492 2.27618462 27.55658196 1.98046875 24.234375 C1.89531006 23.28292603 1.81015137 22.33147705 1.72241211 21.35119629 C1.09201439 14.23693199 0.54788859 7.12255172 0 0 Z " fill="#FEFEFE" transform="translate(115,96)"/>
<path d="M0 0 C57.75 0 115.5 0 175 0 C174.407803 11.25174293 173.78625717 22.37368047 172.69940186 33.56869507 C171.65672948 44.32111431 170.69376011 55.06093458 170.2109375 65.85546875 C170 69 170 69 169.50390625 71.96875 C168.92916768 75.42609208 168.73768988 78.8122778 168.5625 82.3125 C168.2473518 88.05527465 167.72331588 93.73222217 167 99.4375 C166.28236536 105.12457556 165.78522937 110.77503915 165.5 116.5 C165.19269943 122.5415293 164.62909602 128.49461246 163.87329102 134.5 C162.89583191 142.48362226 162.16665806 150.49068912 161.4375 158.5 C161.37147583 159.22434235 161.30545166 159.94868469 161.23742676 160.69497681 C160.38793209 170.07396005 159.63180423 179.44609106 159.2109375 188.85546875 C159 192 159 192 158.50390625 194.96875 C157.92916768 198.42609208 157.73768988 201.8122778 157.5625 205.3125 C157.24735079 211.05529316 156.72306042 216.73218384 156 222.4375 C155.22683285 228.58390075 154.76230712 234.68445559 154.46264648 240.87548828 C154.09068089 247.71751653 153.32731821 254.50473132 152.5625 261.3125 C151.49272141 270.86717315 150.63005197 280.40636376 150 290 C149.30693763 300.52822747 148.29322208 310.98588321 147.10766602 321.46923828 C146.04024288 331.10650558 145.34135189 340.74892932 144.70361328 350.42285156 C144.16427083 358.3567728 143.38484504 366.16236635 142 374 C131.26457247 377.12424207 120.51848585 380.16058777 109.6875 382.9375 C100.80130828 385.22057003 91.99604363 387.71894543 83.19873047 390.32177734 C74.67120209 392.83328134 66.09894667 395.15345819 57.50952148 397.44287109 C50.73688667 399.25195435 43.98571216 401.12059833 37.25 403.0625 C29.84028305 405.19174548 22.42745426 407.30834214 15 409.375 C13.61022949 409.76957397 13.61022949 409.76957397 12.19238281 410.17211914 C10.89059082 410.53164673 10.89059082 410.53164673 9.5625 410.8984375 C8.80066406 411.11161621 8.03882813 411.32479492 7.25390625 411.54443359 C5 412 5 412 0 412 C0 393.85 0 375.7 0 357 C10.10789369 353.6307021 10.10789369 353.6307021 14.453125 352.53515625 C15.86561523 352.17454102 15.86561523 352.17454102 17.30664062 351.80664062 C18.27794922 351.56107422 19.24925781 351.31550781 20.25 351.0625 C26.37388419 349.49197645 32.47579895 347.92484499 38.5 346 C45.44822448 343.78248155 52.50897823 342.02568244 59.5703125 340.2109375 C65.57708596 338.65827282 71.49961544 336.95851211 77.41015625 335.0703125 C83.54513278 333.24116825 89.75409376 331.68629499 95.95703125 330.10546875 C96.90835938 329.86183594 97.8596875 329.61820312 98.83984375 329.3671875 C99.68925537 329.15175293 100.53866699 328.93631836 101.41381836 328.71435547 C104.31455305 327.91311411 107.15262292 326.97257906 110 326 C110.05375793 325.32683243 110.10751587 324.65366486 110.16290283 323.96009827 C114.78121141 266.20124808 114.78121141 266.20124808 117.61572266 237.98925781 C118.7082929 227.10383641 119.70543986 216.21390916 120.625 205.3125 C120.68623047 204.58792603 120.74746094 203.86335205 120.81054688 203.11682129 C121.04548971 200.33461182 121.27996209 197.55236338 121.51367188 194.77005005 C122.03604601 188.55370187 122.57185307 182.33868384 123.125 176.125 C123.20057129 175.25141846 123.27614258 174.37783691 123.35400391 173.4777832 C123.46107666 172.28608521 123.46107666 172.28608521 123.5703125 171.0703125 C123.62977051 170.39758301 123.68922852 169.72485352 123.75048828 169.03173828 C124.04066646 166.66885886 124.53311991 164.33440046 125 162 C60.32 162 -4.36 162 -71 162 C-75 123 -75 123 -76 107 C-8.02 107 59.96 107 130 107 C130 103.7 130 100.4 130 97 C131.32 82.48 132.64 67.96 134 53 C89.78 53 45.56 53 0 53 C0 35.51 0 18.02 0 0 Z " fill="#F06529" transform="translate(250,43)"/>
<path d="M0 0 C88.77 0 177.54 0 269 0 C269 18.04931516 266.67178838 36.02827495 265 54 C197.02 54 129.04 54 59 54 C59.33 54.66 59.66 55.32 60 56 C60.20213837 57.44094859 60.35465902 58.8890358 60.48071289 60.33862305 C60.56072037 61.23683273 60.64072784 62.13504242 60.72315979 63.06047058 C60.80549362 64.03438248 60.88782745 65.00829437 60.97265625 66.01171875 C61.06002548 67.01330521 61.14739471 68.01489166 61.2374115 69.04682922 C61.42172586 71.17094145 61.60400543 73.29523105 61.78442383 75.41967773 C62.05992372 78.65722475 62.34292728 81.89405046 62.62695312 85.13085938 C62.8051391 87.19527357 62.98288744 89.2597256 63.16015625 91.32421875 C63.24451431 92.28800949 63.32887238 93.25180023 63.41578674 94.24479675 C63.49264206 95.15876724 63.56949738 96.07273773 63.64868164 97.0144043 C63.71672501 97.81001266 63.78476837 98.60562103 63.85487366 99.42533875 C64.034508 102.61220037 64 105.80807965 64 109 C87.43 109 110.86 109 135 109 C135 126.49 135 143.98 135 162 C95.07 162 55.14 162 14 162 C13.34 152.76 12.68 143.52 12 134 C11.57710983 129.00099775 11.14503209 124.00887572 10.66796875 119.015625 C10.55106689 117.7632605 10.43416504 116.510896 10.3137207 115.22058105 C10.00441218 111.91022396 9.69262587 108.60011262 9.37981796 105.29008484 C8.84664496 99.63425244 8.32185674 93.9776301 7.7953434 88.32117462 C7.59395118 86.15841046 7.39222598 83.99567754 7.19047546 81.83294678 C5.82125709 67.14173796 4.49869037 52.4465007 3.1875 37.75 C3.08263275 36.57876587 2.9777655 35.40753174 2.86972046 34.20080566 C2.57236607 30.87874492 2.27618462 27.55658196 1.98046875 24.234375 C1.89531006 23.28292603 1.81015137 22.33147705 1.72241211 21.35119629 C1.09201439 14.23693199 0.54788859 7.12255172 0 0 Z " fill="#EBE9E9" transform="translate(115,96)"/>
<path d="M0 0 C17.82 0 35.64 0 54 0 C56.25 16.875 56.25 16.875 56.8515625 22.58984375 C56.98046875 23.80478516 57.109375 25.01972656 57.2421875 26.27148438 C57.36851562 27.48126953 57.49484375 28.69105469 57.625 29.9375 C57.82609375 31.83918945 57.82609375 31.83918945 58.03125 33.77929688 C58.3559846 36.85267792 58.67888481 39.92623906 59 43 C59.73822998 43.18062988 60.47645996 43.36125977 61.23706055 43.54736328 C75.3376609 47.007754 89.3814018 50.55746002 103.31640625 54.640625 C108.52741627 56.15307828 113.76513244 57.57230885 119 59 C118.67 77.48 118.34 95.96 118 115 C99.31183831 110.32795958 99.31183831 110.32795958 91.0625 108.0625 C90.12559326 107.80654053 89.18868652 107.55058105 88.22338867 107.28686523 C82.73198978 105.77814657 77.26577277 104.2029484 71.8125 102.5625 C64.48815413 100.36071378 57.09699875 98.4553476 49.6875 96.5625 C35.29036398 92.87825274 21.07955838 88.75542997 7 84 C4.66666667 56 2.33333333 28 0 0 Z " fill="#EAE9E9" transform="translate(132,285)"/>
<path d="M0 0 C44.22 0 88.44 0 134 0 C134 6.68979411 133.84259757 13.04634976 133.16015625 19.65625 C133.07374374 20.52519897 132.98733124 21.39414795 132.89830017 22.28942871 C132.71658361 24.10465278 132.53244412 25.91963584 132.34594727 27.734375 C132.06043031 30.52019419 131.78459498 33.30685824 131.50976562 36.09375 C131.33129872 37.86464082 131.1522824 39.63547638 130.97265625 41.40625 C130.8491555 42.65613708 130.8491555 42.65613708 130.72315979 43.93127441 C130.1152787 49.7694426 130.1152787 49.7694426 129 52 C86.43 52 43.86 52 0 52 C0 34.84 0 17.68 0 0 Z " fill="#FEFEFE" transform="translate(250,97)"/>
<path d="M0 0 C61.38 0 122.76 0 186 0 C182.48138298 48.08776596 182.48138298 48.08776596 180 70 C165.6844645 74.90163936 150.95317569 78.5861861 136.3125 82.375 C135.26813278 82.64633759 135.26813278 82.64633759 134.20266724 82.92315674 C132.21527324 83.43865365 130.22698008 83.95050034 128.23828125 84.4609375 C127.08368408 84.75790527 125.92908691 85.05487305 124.73950195 85.36083984 C122 86 122 86 120 86 C120 57.95 120 29.9 120 1 C80.4 1 40.8 1 0 1 C0 0.67 0 0.34 0 0 Z " fill="#F0672D" transform="translate(130,258)"/>
<path d="M0 0 C25.08 0 50.16 0 76 0 C76 17.82 76 35.64 76 54 C52.57 54 29.14 54 5 54 C2.70102612 35.60820896 2.70102612 35.60820896 2.1484375 28.125 C2.09147705 27.39410156 2.0345166 26.66320312 1.97583008 25.91015625 C1.7714428 23.27375295 1.57354958 20.63684937 1.375 18 C0.92125 12.06 0.4675 6.12 0 0 Z " fill="#E44D26" transform="translate(174,150)"/>
</svg>
