<?xml version="1.0" encoding="UTF-8"?>
<svg version="1.1" xmlns="http://www.w3.org/2000/svg" width="500" height="500">
<path d="M0 0 C0.886875 0.75152344 1.77375 1.50304687 2.6875 2.27734375 C7.37974048 6.33173279 7.37974048 6.33173279 9 8 C9 8.66 9 9.32 9 10 C9.639375 10.268125 10.27875 10.53625 10.9375 10.8125 C13 12 13 12 14 15 C14.66 15.33 15.32 15.66 16 16 C16.66 16.33 17.32 16.66 18 17 C18.33 17.99 18.66 18.98 19 20 C19.66 20.33 20.32 20.66 21 21 C21.66 21.33 22.32 21.66 23 22 C23.33 22.99 23.66 23.98 24 25 C24.66 25 25.32 25 26 25 C27.1481261 26.1133344 28.28946548 27.23424426 29.40234375 28.3828125 C38.83335992 37.92912226 49.03100556 45.20466192 62 49 C62.7528125 49.22558594 63.505625 49.45117188 64.28125 49.68359375 C76.03696346 52.60239247 89.68307854 52.26109695 101 48 C101.94875 47.67128906 102.8975 47.34257812 103.875 47.00390625 C120.20995537 40.85702851 133.4683808 28.69882987 144 15 C144.66 15.33 145.32 15.66 146 16 C141.66480312 29.91166074 137.18364228 43.2859773 130 56 C129.45988281 56.96550781 128.91976563 57.93101562 128.36328125 58.92578125 C113.9307785 83.07314058 91.63272044 98.53683032 64.71484375 105.8984375 C28.81113089 114.38095212 -12.53113088 111.36238492 -44.44873047 91.75463867 C-56.52462648 83.96848094 -67.09737057 74.35048704 -77 64 C-78.66533812 62.33200584 -80.33205668 60.66538904 -82 59 C-82.89976562 58.07703125 -83.79953125 57.1540625 -84.7265625 56.203125 C-101.31064328 39.23681738 -118.26104281 26.30531176 -142.69091797 25.58276367 C-150.85901546 25.51962788 -158.31291056 26.02862114 -166 29 C-166.95777344 29.32871094 -167.91554687 29.65742188 -168.90234375 29.99609375 C-177.00819338 33.01101079 -183.34371022 37.54619785 -190 43 C-190.73089844 43.5775 -191.46179688 44.155 -192.21484375 44.75 C-197.23038605 48.88161504 -201.09227759 53.67533141 -205.01953125 58.83984375 C-205.67308594 59.55269531 -206.32664063 60.26554687 -207 61 C-207.99 61 -208.98 61 -210 61 C-200.53048633 30.39239366 -188.3396194 3.50966124 -161 -15 C-160.19046875 -15.55300781 -159.3809375 -16.10601562 -158.546875 -16.67578125 C-110.24015375 -47.62727318 -41.67419024 -35.65871932 0 0 Z " fill="#43A8B3" transform="translate(223,291)"/>
<path d="M0 0 C2.58640955 2.28235835 5.14748613 4.58835703 7.69140625 6.91796875 C9.6254171 8.6621782 11.59012528 10.31438817 13.625 11.9375 C14.800625 12.9584375 14.800625 12.9584375 16 14 C16 14.66 16 15.32 16 16 C16.57621094 16.2371875 17.15242187 16.474375 17.74609375 16.71875 C20.48629826 18.27643991 22.02695773 20.09539679 24.0625 22.5 C37.20643023 37.40217212 54.39460541 52.12441415 75 54 C85.60520453 54.58200724 95.96354897 54.88912478 106 51 C106.969375 50.6596875 107.93875 50.319375 108.9375 49.96875 C124.58918128 44.05944176 138.45248907 31.61528847 148 18 C148.66 18.33 149.32 18.66 150 19 C139.9011577 52.4765879 124.96385035 82.55183711 92.86767578 100.04589844 C59.77495065 116.95130626 18.89916607 117.02439321 -16 106 C-34.17175722 99.96558899 -48.48096487 90.09040534 -62.52734375 77.24609375 C-65.75847976 74.3110176 -69.06740564 71.46822527 -72.3828125 68.62890625 C-74 67 -74 67 -74 65 C-74.58265625 64.75636719 -75.1653125 64.51273437 -75.765625 64.26171875 C-78.38954034 62.78003229 -79.82441839 61.12399363 -81.75 58.8125 C-85.54120747 54.43372532 -89.54535361 50.68745729 -94 47 C-94.73734375 46.35160156 -95.4746875 45.70320313 -96.234375 45.03515625 C-111.54387046 32.0020727 -129.2168579 27.45504932 -149 29 C-172.1273048 31.70525813 -189.74941364 47.7492902 -204 65 C-204.99513734 61.91094577 -204.99928345 60.12190039 -203.9609375 57.05859375 C-203.58884155 55.9442395 -203.58884155 55.9442395 -203.20922852 54.80737305 C-202.93393311 54.02531494 -202.6586377 53.24325684 -202.375 52.4375 C-201.9572229 51.22477417 -201.9572229 51.22477417 -201.53100586 49.98754883 C-199.36678008 43.81119566 -196.95655562 37.84374924 -194 32 C-193.48824219 30.96617187 -192.97648438 29.93234375 -192.44921875 28.8671875 C-188.37334019 20.94030643 -183.55824958 13.9555175 -178 7 C-177.49855469 6.34386719 -176.99710938 5.68773437 -176.48046875 5.01171875 C-159.61987634 -16.12475877 -131.86875653 -25.88125377 -105.94580078 -29.12426758 C-67.4583969 -33.43153344 -29.90918522 -25.29524558 0 0 Z " fill="#43A8B3" transform="translate(337,146)"/>
</svg>
