<?xml version="1.0" encoding="UTF-8"?>
<svg version="1.1" xmlns="http://www.w3.org/2000/svg" width="500" height="500">
<path d="M0 0 C1.53548492 0.00830841 1.53548492 0.00830841 3.10198975 0.01678467 C18.24713525 0.11270914 32.82685339 0.7071727 47.5625 4.5 C48.9235083 4.83741211 48.9235083 4.83741211 50.31201172 5.18164062 C61.76089949 8.07122607 72.75023038 11.74075312 83.5625 16.5 C84.54283203 16.92055664 84.54283203 16.92055664 85.54296875 17.34960938 C106.59412774 26.43168083 125.23447318 39.37826281 141.91015625 55.03515625 C144.01961064 56.99548868 146.15195942 58.86054683 148.375 60.6875 C152.20006761 63.93329055 155.34218496 67.66691246 158.5625 71.5 C159.67238281 72.76070312 159.67238281 72.76070312 160.8046875 74.046875 C199.62798394 118.94793989 215.99592944 177.91763128 212.28515625 236.53125 C208.37500035 285.22163576 187.49970011 330.77937453 154.5625 366.5 C153.8096875 367.3559375 153.056875 368.211875 152.28125 369.09375 C147.66697081 374.34012223 142.96198127 379.0726021 137.5625 383.5 C137.06572754 383.91975098 136.56895508 384.33950195 136.05712891 384.77197266 C117.21355264 400.68248125 96.29139633 412.17075366 73.5625 421.5 C72.68980469 421.87769531 71.81710937 422.25539063 70.91796875 422.64453125 C66.37592714 424.29412845 62.18855547 424.18655675 57.75 422.3125 C54.21952732 419.38725121 52.70605846 416.77788063 52.19068909 412.19033813 C52.19165085 410.93208221 52.19261261 409.67382629 52.19360352 408.37744141 C52.1879538 407.32984146 52.1879538 407.32984146 52.18218994 406.26107788 C52.17577268 404.74917566 52.17607323 403.23723306 52.18237495 401.72533035 C52.19153475 399.31778657 52.18120164 396.91101378 52.16575623 394.50350952 C52.12582283 387.66006644 52.12443268 380.81668482 52.12670898 373.97314453 C52.12676065 369.77856681 52.10730586 365.58439927 52.07737541 361.38993454 C52.06671377 359.04422232 52.07858843 356.69935145 52.09120178 354.35366821 C52.05363913 338.31769904 48.3984058 325.4296922 38.5625 312.5 C43.0550232 311.48102918 47.54904308 310.48928864 52.0703125 309.60546875 C72.35154625 305.61186674 90.93296474 299.52356466 106.5625 285.5 C107.17222656 284.98308594 107.78195312 284.46617187 108.41015625 283.93359375 C127.37363922 266.69799078 132.95811547 238.76407377 134.34375 214.39453125 C135.3041002 192.23939326 131.14760897 171.1294941 116.9375 153.625 C113.58874831 149.28402559 113.58874831 149.28402559 113.47265625 145.81640625 C113.98326439 143.27093012 114.72321262 140.95361048 115.5625 138.5 C118.37393087 125.29193551 116.79923917 111.44695669 113.5625 98.5 C113.24345703 97.16195312 113.24345703 97.16195312 112.91796875 95.796875 C112.48760853 94.02589627 112.02985712 92.26157683 111.5625 90.5 C92.09886587 90.86660955 73.93758326 98.70338684 58.375 110.1875 C55.38075483 112.25773982 54.72597708 112.4972292 50.875 112.5625 C49.42897216 112.24494094 47.99203461 111.88505983 46.5625 111.5 C15.89021347 104.34042118 -15.97695631 104.24756136 -46.5625 112.046875 C-52.88656182 113.04360214 -56.82707313 110.92570972 -61.875 107.375 C-76.70794543 97.41937537 -92.43902208 91.03249935 -110.4375 90.5 C-111.08724205 93.18660783 -111.73238418 95.87418674 -112.375 98.5625 C-112.55740234 99.31466797 -112.73980469 100.06683594 -112.92773438 100.84179688 C-116.20759346 114.61720504 -116.64986884 127.74082415 -112.99609375 141.4140625 C-112.22538442 145.67182735 -112.37297094 148.91222784 -114.8203125 152.5625 C-115.68269531 153.5215625 -115.68269531 153.5215625 -116.5625 154.5 C-129.08647117 169.85279423 -132.67149579 188.48201404 -132.6875 207.75 C-132.68817474 208.4730835 -132.68884949 209.19616699 -132.68954468 209.94116211 C-132.67347571 220.75512683 -132.22370304 230.99299337 -129.4375 241.5 C-129.26589355 242.16306152 -129.09428711 242.82612305 -128.91748047 243.50927734 C-125.16338846 257.69699414 -119.37451794 270.50789328 -109.4375 281.5 C-108.81101562 282.20769531 -108.18453125 282.91539062 -107.5390625 283.64453125 C-102.48951367 289.03415174 -96.82588928 292.8433171 -90.4375 296.5 C-89.55707031 297.01433594 -88.67664063 297.52867187 -87.76953125 298.05859375 C-72.3085261 306.45420304 -54.59804685 309.570991 -37.4375 312.5 C-37.8387207 313.00861572 -38.23994141 313.51723145 -38.65332031 314.04125977 C-44.1710951 321.1857922 -47.86160576 328.60324939 -49.4375 337.5625 C-50.1905266 341.26099349 -50.1905266 341.26099349 -52.375 343.375 C-53.385625 343.74625 -54.39625 344.1175 -55.4375 344.5 C-56.14390625 344.77457031 -56.8503125 345.04914063 -57.578125 345.33203125 C-68.58968018 349.03069779 -82.37280969 349.4564242 -93.1171875 344.7578125 C-102.53998386 339.64983198 -108.66290562 332.33259635 -114.4375 323.4375 C-121.393017 312.91166059 -129.67279016 306.38467731 -141.91015625 302.76953125 C-146.16693491 302.07237097 -149.51048118 302.831017 -153.4375 304.5 C-153.19710249 307.74536636 -152.30962687 308.61851656 -149.875 310.875 C-148.15128371 312.24166077 -146.41285701 313.51630786 -144.578125 314.73046875 C-134.01264723 321.93612459 -128.81200673 332.39988759 -123.67211914 343.69311523 C-118.29278442 355.38144467 -110.40581552 364.67843451 -98.21875 369.65625 C-85.47048777 373.52370034 -73.02959313 374.10237019 -59.875 372.5 C-59.05708984 372.40460938 -58.23917969 372.30921875 -57.39648438 372.2109375 C-55.40961325 371.97855491 -53.42347206 371.73994484 -51.4375 371.5 C-51.3104492 377.79860838 -51.22304439 384.0968849 -51.1628418 390.39648438 C-51.13773837 392.53821156 -51.10364832 394.67985341 -51.06030273 396.82128906 C-50.9994685 399.9045113 -50.97124819 402.98659843 -50.94921875 406.0703125 C-50.92341232 407.02366486 -50.8976059 407.97701721 -50.87101746 408.95925903 C-50.8691567 413.3960517 -50.96089427 416.52806689 -53.78051758 420.08935547 C-57.37191653 423.34778359 -60.25343314 423.87597433 -65.05566406 423.80371094 C-69.93695866 423.18129084 -74.33281709 421.07449495 -78.8125 419.125 C-79.86961182 418.67237793 -80.92672363 418.21975586 -82.01586914 417.75341797 C-103.29080162 408.46905094 -122.15503234 395.95850261 -139.4375 380.5 C-139.99985352 379.99936035 -140.56220703 379.4987207 -141.14160156 378.98291016 C-147.64442921 373.16756597 -153.95610172 367.30985943 -159.4375 360.5 C-160.25476563 359.50871094 -161.07203125 358.51742188 -161.9140625 357.49609375 C-190.68592268 322.14206491 -210.33651391 276.39651323 -210.67578125 230.37109375 C-210.683853 229.30496353 -210.69192474 228.23883331 -210.70024109 227.14039612 C-210.71402749 224.88373408 -210.7247738 222.62705167 -210.73266602 220.37036133 C-210.74408672 218.10857844 -210.76437718 215.84682032 -210.79418945 213.58520508 C-211.05925467 193.41507511 -208.87298972 174.29553497 -203.25 154.875 C-202.95520752 153.84487793 -202.66041504 152.81475586 -202.35668945 151.75341797 C-193.32395728 121.32614145 -177.00286056 93.05035586 -155.5078125 69.7578125 C-153.65321134 67.73524746 -151.88714839 65.66516016 -150.125 63.5625 C-138.08131511 49.80224393 -122.97864315 38.94747804 -107.4375 29.5 C-106.84694824 29.13551758 -106.25639648 28.77103516 -105.64794922 28.39550781 C-73.71822258 8.85655006 -37.23599026 -0.39809528 0 0 Z " fill="#000000" transform="translate(249.4375,38.5)"/>
</svg>
