<?xml version="1.0" encoding="UTF-8"?>
<svg version="1.1" xmlns="http://www.w3.org/2000/svg" width="500" height="500">
<path d="M0 0 C137.28 0 274.56 0 416 0 C415.67 5.28 415.34 10.56 415 16 C414.80470703 19.2175 414.80470703 19.2175 414.60546875 22.5 C413.23231307 44.26501866 410.97558997 65.92549178 408.72924805 87.61413574 C408.1058223 93.63805033 407.48682985 99.66239601 406.875 105.6875 C406.74643867 106.95230351 406.74643867 106.95230351 406.61528015 108.24265862 C405.5722787 118.56162432 404.67357661 128.86961835 404.03125 139.22265625 C403.27959001 151.2639155 402.13962249 163.24596986 400.90625 175.24609375 C400.80988251 176.18457783 400.71351501 177.1230619 400.61422729 178.08998489 C399.8153034 185.85198552 399.00482006 193.61277226 398.19281006 201.37341309 C397.48703772 208.12201856 396.78612617 214.87109991 396.09375 221.62109375 C395.94907791 223.03066754 395.94907791 223.03066754 395.80148315 224.46871758 C394.53109917 236.91933698 393.50247754 249.3471333 392.75866699 261.84140015 C392.12948766 271.98635353 391.16600916 282.08210858 390.125 292.19140625 C390.03957443 293.02147627 389.95414886 293.85154629 389.86613464 294.70676994 C389.25150358 300.6594613 388.62661604 306.61106022 388 312.5625 C387.28539153 319.35482452 386.57500119 326.14755936 385.875 332.94140625 C385.79010252 333.76464701 385.70520504 334.58788776 385.61773491 335.43607521 C384.39836764 347.3299567 383.41597303 359.21529518 382.65248108 371.14828491 C382.03196846 380.84385418 381.18596344 390.50342756 380.19506836 400.16772461 C379.92753098 402.78502632 379.66955793 405.40317266 379.41210938 408.02148438 C379.24272986 409.7057838 379.07283114 411.39003111 378.90234375 413.07421875 C378.82628403 413.84787277 378.7502243 414.62152679 378.67185974 415.41862488 C378.11524518 420.76950965 378.11524518 420.76950965 377 423 C374.93725586 423.80615234 374.93725586 423.80615234 372.21484375 424.5859375 C371.21743164 424.87476807 370.22001953 425.16359863 369.19238281 425.46118164 C367.58121582 425.91352173 367.58121582 425.91352173 365.9375 426.375 C364.84147461 426.68880615 363.74544922 427.0026123 362.61621094 427.32592773 C355.44077889 429.36332451 348.24297728 431.22011879 340.9921875 432.96875 C336.23402622 434.15768619 331.56146713 435.62094814 326.875 437.0625 C321.42220404 438.73694852 316.04444938 440.2900098 310.4375 441.375 C302.05060201 443.02833114 293.93214408 445.62421361 285.76733398 448.13232422 C280.06859719 449.86695526 274.46390445 451.36542963 268.609375 452.4519043 C263.11724997 453.60551776 257.75650868 455.29495023 252.375 456.875 C243.37826216 459.48359098 234.38886746 462.00207513 225.28125 464.19140625 C221.32529413 465.1662668 217.4243661 466.29695166 213.52734375 467.484375 C206.56671942 468.90447146 200.99943741 467.32936563 194.4375 465.1875 C188.73763516 463.39789945 183.12235922 461.7037457 177.25 460.5625 C170.98748576 459.31292014 164.93117906 457.57284724 158.8125 455.75 C145.62664419 451.82547649 132.32843415 448.4020882 119 445 C110.06516455 442.71008089 101.15840114 440.33722585 92.28125 437.83203125 C91.58859543 437.63659729 90.89594086 437.44116333 90.18229675 437.23980713 C86.72609537 436.26354221 83.27106467 435.28335922 79.81762695 434.29736328 C71.80328565 432.01769471 63.76530625 429.90220832 55.67041016 427.92651367 C44.19189904 425.02901802 44.19189904 425.02901802 39 423 C37.63983486 420.27966972 37.58044136 417.82286015 37.27563477 414.79150391 C37.14202042 413.4805777 37.00840607 412.16965149 36.8707428 410.81900024 C36.72743253 409.37154059 36.58432625 407.92406074 36.44140625 406.4765625 C36.29091582 404.97705812 36.14019042 403.4775773 35.98924255 401.9781189 C35.67147952 398.81232439 35.35659885 395.64625944 35.04370117 392.47998047 C34.65121129 388.51049858 34.25180697 384.54175181 33.85025978 380.57317734 C32.39263226 366.14060537 30.98336128 351.71822133 30.02734375 337.2421875 C29.28060033 325.98050617 28.24911744 314.76022815 27.125 303.53125 C27.0396594 302.67828716 26.95431881 301.82532433 26.86639214 300.94651413 C26.24968911 294.79712369 25.62560958 288.6484898 25 282.5 C24.28673922 275.49007438 23.57655379 268.47985797 22.875 261.46875 C22.78929245 260.61295412 22.7035849 259.75715824 22.61528015 258.87542915 C21.59939569 248.68340107 20.69497989 238.49944928 20.03125 228.27734375 C19.25265629 216.35521118 18.1116606 204.48311865 16.90625 192.59765625 C16.80988251 191.64669949 16.71351501 190.69574272 16.61422729 189.71596909 C15.81412854 181.83651332 15.00419328 173.95807348 14.19281006 166.07977295 C13.48784676 159.23209938 12.78712756 152.38401325 12.09375 145.53515625 C11.9490156 144.10656753 11.9490156 144.10656753 11.80135727 142.64911842 C10.56489618 130.38282571 9.52948689 118.13532232 8.76773071 105.82955933 C8.11117938 95.67527801 7.10821733 85.56840885 6.0546875 75.44921875 C5.96677696 74.60275347 5.87886642 73.75628819 5.78829193 72.88417244 C4.97245479 65.04377853 4.14342385 57.20479536 3.30810547 49.36645508 C2.84492737 45.01541689 2.38994366 40.66357938 1.93957901 36.31119728 C1.76971493 34.68571778 1.59679674 33.06055377 1.42043686 31.43576622 C1.17352061 29.1606312 0.93713715 26.88459827 0.70263672 24.6081543 C0.56654999 23.32772751 0.43046326 22.04730072 0.29025269 20.72807312 C-0.13315185 13.83102207 0 6.91003507 0 0 Z " fill="#2062AF" transform="translate(42,16)"/>
<path d="M0 0 C86.13 0 172.26 0 261 0 C261 10.82787263 261 10.82787263 260 15 C259.81800415 16.76956218 259.66449611 18.54221799 259.53515625 20.31640625 C259.21513366 24.56828087 258.86699663 28.81543173 258.48828125 33.0625 C258.19619732 36.38281471 257.95640725 39.66747167 257.91796875 43 C257.74351654 46.18071004 257.54000223 48.20784643 256 51 C251.66918977 54.24355212 247.02392734 56.13861685 242 58 C240.89140625 58.43570313 239.7828125 58.87140625 238.640625 59.3203125 C236.50902418 60.1469577 234.37089367 60.95696268 232.2265625 61.75 C227.73357104 63.49062623 223.40869492 65.54656634 219.05078125 67.59765625 C215.60918527 69.17964467 212.11853112 70.56491496 208.58984375 71.9375 C205.5303414 73.19268045 202.55398104 74.59058608 199.5625 76 C195.62738793 77.84128348 191.72986263 79.51635142 187.625 80.9375 C182.39865435 82.7609987 177.47220679 85.05537048 172.48144531 87.43115234 C168.21841971 89.45396995 163.92696686 91.27039299 159.52734375 92.96875 C155.39717163 94.65401343 151.39123262 96.60446536 147.37109375 98.53515625 C143.35024551 100.28233828 139.1590719 101.6136427 135 103 C173.28 103.33 211.56 103.66 251 104 C249.85762286 139.41369121 249.85762286 139.41369121 248.38613892 150.89685059 C247.9124638 154.59834731 247.4866728 158.30561842 247.05078125 162.01171875 C246.96171005 162.75801544 246.87263885 163.50431213 246.78086853 164.27322388 C245.83393171 172.25384422 245.05796925 180.24841353 244.3125 188.25 C244.13388428 190.12933228 244.13388428 190.12933228 243.95166016 192.04663086 C243.29289411 199.16520161 242.77819364 206.28048544 242.35443115 213.41583252 C242.05924693 218.29802614 241.62942755 223.14301275 241.0625 228 C239.80539146 239.31277504 238.90600017 250.65460562 238 262 C233.38993752 264.09388334 229.08664419 265.57465858 224.125 266.6875 C216.7867929 268.41038341 209.66148705 270.65647472 202.5 273 C195.50228575 275.28735306 188.54335823 277.50003168 181.375 279.1875 C176.22049087 280.40349067 171.25050938 281.84044085 166.25 283.5625 C160.83239557 285.42337883 155.44056624 286.98247672 149.87109375 288.3125 C146.83839931 289.03869622 143.82483214 289.81860993 140.8125 290.625 C139.91144531 290.86476563 139.01039063 291.10453125 138.08203125 291.3515625 C136.03195392 291.81309317 136.03195392 291.81309317 135 293 C128.59131561 292.67956578 123.01616993 291.20743733 116.9296875 289.23828125 C112.11653991 287.69183241 107.24258185 286.36278591 102.375 285 C95.90610042 283.18049726 89.59711832 281.20334089 83.3203125 278.79296875 C80.94384112 277.98080766 78.65935986 277.49567158 76.1875 277.0625 C70.75322216 276.09086488 65.75940987 274.20358572 60.58984375 272.30078125 C52.74048906 269.45656459 44.86247606 266.93021965 36.609375 265.58984375 C32.64347861 264.69336118 28.83948583 263.32821237 25 262 C22.3431425 235.3659291 20.63581457 208.71830462 19 182 C36.49 182 53.98 182 72 182 C72.495 186.33125 72.99 190.6625 73.5 195.125 C73.65662109 196.45934082 73.81324219 197.79368164 73.97460938 199.16845703 C74.89599799 207.50361143 75.17403918 215.61872426 75 224 C76.18078125 224.13148438 77.3615625 224.26296875 78.578125 224.3984375 C82.39062929 224.87792424 86.02702463 225.65635256 89.75 226.625 C91.13020833 226.9765625 92.51041667 227.328125 93.890625 227.6796875 C96.70895461 228.40569106 99.52576303 229.13720233 102.34179688 229.87207031 C106.05908116 230.83976013 109.77942972 231.79503113 113.5 232.75 C114.70495117 233.06791504 115.90990234 233.38583008 117.15136719 233.71337891 C130.51944744 237.13082489 139.74209601 235.51241151 152.63574219 231.10546875 C158.31678968 229.18291062 164.04881218 227.46948363 169.8125 225.8125 C170.67133789 225.56274414 171.53017578 225.31298828 172.41503906 225.05566406 C178.22934602 223.40049639 184.06030083 222.1161251 190 221 C189.98984863 220.28692688 189.97969727 219.57385376 189.96923828 218.83917236 C189.90793314 211.11644506 190.2847664 203.49477667 190.875 195.796875 C190.96378418 194.5930719 191.05256836 193.3892688 191.14404297 192.14898682 C191.42524398 188.34900493 191.71251635 184.54951121 192 180.75 C192.19311189 178.15497792 192.38582401 175.55992605 192.578125 172.96484375 C193.04746512 166.64287771 193.52177475 160.3212998 194 154 C192.61760557 154.00138269 192.61760557 154.00138269 191.20728397 154.00279331 C168.81676039 154.02484612 146.42623867 154.04141037 124.03570652 154.05181217 C113.2079638 154.05697568 102.38022831 154.06401942 91.55249023 154.07543945 C82.11865593 154.08538462 72.68482687 154.09185303 63.25098747 154.09408849 C58.25258514 154.09539589 53.25419779 154.09848353 48.25580025 154.10573006 C43.5568499 154.11248764 38.85792081 154.1146175 34.15896606 154.11310768 C32.42911094 154.11338413 30.69925516 154.1153908 28.96940422 154.11920547 C26.61817177 154.12413864 24.26702085 154.1229997 21.91578674 154.12025452 C20.59670098 154.12117631 19.27761522 154.1220981 17.91855717 154.12304783 C15 154 15 154 14 153 C13.78249965 151.43199616 13.62806721 149.85517176 13.5 148.27734375 C13.4179834 147.27437256 13.3359668 146.27140137 13.25146484 145.23803711 C13.16848145 144.14885986 13.08549805 143.05968262 13 141.9375 C12.91314941 140.82963135 12.82629883 139.7217627 12.73681641 138.58032227 C11.86952454 127.06551761 11.3836731 115.53982626 11 104 C16.4377707 101.21089515 21.8160642 98.54379256 27.5625 96.4375 C31.26104346 95.05216458 34.90767907 93.64126222 38.5 92 C42.03302099 90.38822035 45.61462256 88.99044081 49.25 87.625 C54.88100728 85.49045538 60.29679348 83.03789608 65.7421875 80.47265625 C70.05044185 78.52515998 74.44961265 76.87827026 78.875 75.21875 C81.84982013 74.05857015 84.73131889 72.78569233 87.625 71.4375 C91.00320004 69.86904998 94.35741646 68.47230497 97.875 67.25 C104.45427851 64.93348636 110.81830991 62.12682886 117.21240234 59.34863281 C118.07172363 58.97577148 118.93104492 58.60291016 119.81640625 58.21875 C120.95251343 57.7227832 120.95251343 57.7227832 122.11157227 57.21679688 C126.38277756 55.4174826 130.69676079 53.72129569 135 52 C92.43 51.67 49.86 51.34 6 51 C4.68 41.43 3.36 31.86 2 22 C1.34 17.71 0.68 13.42 0 9 C0 6.03 0 3.06 0 0 Z " fill="#E0E0DF" transform="translate(118,102)"/>
<path d="M0 0 C55.11 0 110.22 0 167 0 C167 10.73401828 166.85939882 20.95343354 165.828125 31.55859375 C165.70371798 32.90026028 165.58008374 34.24199864 165.45715332 35.58380127 C165.19692287 38.41071687 164.93232221 41.2371707 164.66394043 44.06332397 C164.02741405 50.77089771 163.41507562 57.48070306 162.8010025 64.19036293 C162.66276892 65.69958335 162.52425445 67.20877807 162.3854599 68.71794701 C161.06895203 83.03296768 159.87291418 97.35593334 158.75 111.6875 C158.6735022 112.66371307 158.59700439 113.63992615 158.51818848 114.64572144 C158.22819301 118.35176726 157.9385973 122.05784396 157.64971924 125.76397705 C157.10238185 132.76083948 156.53333445 139.75578915 155.953125 146.75 C155.87286072 147.7222905 155.79259644 148.69458099 155.7098999 149.69633484 C154.79374032 160.67397861 153.75458058 171.64541132 152.46484375 182.5859375 C151.41607413 191.64603464 150.80010422 200.63212758 150.5 209.75 C150.24273022 217.56180493 149.71898194 225.09084748 148.53515625 232.81640625 C147.71989025 238.61796341 147.40567413 244.47119223 147 250.3125 C146.4159009 258.66174837 145.77002298 266.98023362 144.77891541 275.29147339 C144.14933507 280.60317361 143.59082772 285.91915085 143.06640625 291.2421875 C142.89080176 293.01261532 142.71518283 294.78304171 142.53955078 296.5534668 C142.45038391 297.45471283 142.36121704 298.35595886 142.26934814 299.28451538 C142.00805557 301.91878624 141.74447788 304.55281675 141.47998047 307.18676758 C141.04810515 311.48817524 140.62044826 315.78998637 140.19506836 320.09204102 C140.0228108 321.82784211 139.84930025 323.56351929 139.67456055 325.29907227 C138.51187237 336.85781507 137.58170728 348.39696686 137 360 C136.35562988 360.16604736 135.71125977 360.33209473 135.04736328 360.50317383 C132.07271842 361.27093579 129.0988595 362.04170186 126.125 362.8125 C125.11179687 363.07353516 124.09859375 363.33457031 123.0546875 363.60351562 C118.36606939 364.82075302 113.69891218 366.06733451 109.06640625 367.484375 C103.03089786 369.32480719 96.92437741 370.87340641 90.8125 372.4375 C88.40745563 373.05691727 86.00250687 373.67670593 83.59765625 374.296875 C81.88280029 374.73870117 81.88280029 374.73870117 80.13330078 375.18945312 C75.18938858 376.46838319 70.25545585 377.78238303 65.32421875 379.109375 C62.99593762 379.7331683 60.66495189 380.34691346 58.33203125 380.953125 C51.88604948 382.63642801 45.52273444 384.44708106 39.1875 386.5 C32.64003183 388.61315282 26.05093746 390.18818439 19.32275391 391.61230469 C14.40657911 392.6587584 9.6233667 393.90089429 4.84765625 395.484375 C3 396 3 396 0 396 C0 378.84 0 361.68 0 344 C2.97 343.01 5.94 342.02 9 341 C10.06347656 340.63777344 11.12695312 340.27554687 12.22265625 339.90234375 C13.15980469 339.58394531 14.09695313 339.26554687 15.0625 338.9375 C16.47208984 338.45603516 16.47208984 338.45603516 17.91015625 337.96484375 C20.24629069 337.2353555 22.54047592 336.60169611 24.9140625 336.0234375 C28.77397818 335.08142611 32.53189159 333.91310378 36.3125 332.6875 C42.14525984 330.82379011 48.00218269 329.18989686 53.9375 327.6875 C62.7544755 325.44516488 71.38592431 322.71263265 80.02124023 319.85424805 C88.56492953 317.04890931 97.16883564 314.71274708 106 313 C105.97679687 312.34 105.95359375 311.68 105.9296875 311 C105.7863125 303.13485718 106.28062963 295.39760242 106.9375 287.5625 C107.06777588 285.99918945 107.06777588 285.99918945 107.20068359 284.40429688 C107.62431737 279.55247641 108.19826112 274.80401934 109 270 C109.34398569 266.54585863 109.60594489 263.08567469 109.875 259.625 C110.66662653 249.82738595 111.52321044 240.03686707 112.4375 230.25 C112.50030151 229.5747226 112.56310303 228.89944519 112.62780762 228.20370483 C113.41415274 219.7765559 114.28081566 211.36186344 115.22924805 202.95117188 C116.44956531 192.11662159 117.38002703 181.3560564 117.70947266 170.45483398 C117.7357373 169.58802002 117.76200195 168.72120605 117.7890625 167.828125 C117.81540771 166.7129248 117.81540771 166.7129248 117.84228516 165.57519531 C118.05905734 162.0357015 118.56015726 158.51874196 119 155 C80.06 155 41.12 155 1 155 C3.43290092 152.56709908 5.45115573 151.97885777 8.6875 150.8125 C13.75000185 148.92034109 18.62711548 146.83388511 23.5 144.5 C29.17672605 141.78848916 34.91078492 139.44991888 40.80859375 137.25 C45.28359665 135.49724488 49.60227423 133.44827093 53.94921875 131.40234375 C57.39341504 129.81916005 60.88704938 128.43331357 64.41796875 127.05859375 C67.43208898 125.82285006 70.36510255 124.4497182 73.3125 123.0625 C78.70986309 120.53782488 84.17328378 118.37251858 89.75 116.28125 C94.16536522 114.54057717 98.42342867 112.50754517 102.71484375 110.484375 C107.14568088 108.48233206 111.66522088 106.76815048 116.22265625 105.078125 C117.13917969 104.72234375 118.05570312 104.3665625 119 104 C119.75925781 103.71898437 120.51851563 103.43796875 121.30078125 103.1484375 C123.16994091 102.121605 123.16994091 102.121605 123.7578125 100.0234375 C124.89936702 91.78967193 125.60854039 83.53567269 126.21533203 75.24560547 C126.83008945 67.07541186 127.91090234 59.16823245 129 51 C86.43 51 43.86 51 0 51 C0 34.17 0 17.34 0 0 Z " fill="#3C9CD6" transform="translate(250,51)"/>
<path d="M0 0 C39.27 0 78.54 0 119 0 C117.85783569 34.26492935 117.85783569 34.26492935 116.38613892 45.82141113 C115.91371951 49.53650367 115.48688627 53.25706503 115.05078125 56.9765625 C114.96171005 57.72595093 114.87263885 58.47533936 114.78086853 59.24743652 C113.83694009 67.23694101 113.05912383 75.23999594 112.3125 83.25 C112.19342285 84.50280762 112.0743457 85.75561523 111.95166016 87.04638672 C111.2929303 94.16504169 110.77819844 101.28040456 110.35443115 108.41583252 C110.05924693 113.29802614 109.62942755 118.14301275 109.0625 123 C107.80539146 134.31277504 106.90600017 145.65460562 106 157 C101.38993752 159.09388334 97.08664419 160.57465858 92.125 161.6875 C84.7867929 163.41038341 77.66148705 165.65647472 70.5 168 C63.50228575 170.28735306 56.54335823 172.50003168 49.375 174.1875 C44.22049087 175.40349067 39.25050938 176.84044085 34.25 178.5625 C28.83239557 180.42337883 23.44056624 181.98247672 17.87109375 183.3125 C14.83839931 184.03869622 11.82483214 184.81860993 8.8125 185.625 C7.91144531 185.86476563 7.01039063 186.10453125 6.08203125 186.3515625 C4.03195392 186.81309317 4.03195392 186.81309317 3 188 C-3.40868439 187.67956578 -8.98383007 186.20743733 -15.0703125 184.23828125 C-19.88346009 182.69183241 -24.75741815 181.36278591 -29.625 180 C-36.09389958 178.18049726 -42.40288168 176.20334089 -48.6796875 173.79296875 C-51.05615888 172.98080766 -53.34064014 172.49567158 -55.8125 172.0625 C-61.24677784 171.09086488 -66.24059013 169.20358572 -71.41015625 167.30078125 C-79.25951094 164.45656459 -87.13752394 161.93021965 -95.390625 160.58984375 C-99.35652139 159.69336118 -103.16051417 158.32821237 -107 157 C-109.6568575 130.3659291 -111.36418543 103.71830462 -113 77 C-95.51 77 -78.02 77 -60 77 C-59.505 81.33125 -59.01 85.6625 -58.5 90.125 C-58.34337891 91.45934082 -58.18675781 92.79368164 -58.02539062 94.16845703 C-57.10400201 102.50361143 -56.82596082 110.61872426 -57 119 C-55.81921875 119.13148438 -54.6384375 119.26296875 -53.421875 119.3984375 C-49.60937071 119.87792424 -45.97297537 120.65635256 -42.25 121.625 C-40.86979167 121.9765625 -39.48958333 122.328125 -38.109375 122.6796875 C-35.29104539 123.40569106 -32.47423697 124.13720233 -29.65820312 124.87207031 C-25.94091884 125.83976013 -22.22057028 126.79503113 -18.5 127.75 C-17.29504883 128.06791504 -16.09009766 128.38583008 -14.84863281 128.71337891 C-1.48055256 132.13082489 7.74209601 130.51241151 20.63574219 126.10546875 C26.31678968 124.18291062 32.04881218 122.46948363 37.8125 120.8125 C38.67133789 120.56274414 39.53017578 120.31298828 40.41503906 120.05566406 C46.22934602 118.40049639 52.06030083 117.1161251 58 116 C57.98984863 115.28692688 57.97969727 114.57385376 57.96923828 113.83917236 C57.907933 106.11642703 58.28462836 98.49483654 58.875 90.796875 C58.95363281 89.72775879 59.03226563 88.65864258 59.11328125 87.55712891 C59.40405478 83.62106178 59.7024567 79.68556116 60 75.75 C60.66 66.9225 61.32 58.095 62 49 C41.54 49 21.08 49 0 49 C0 32.83 0 16.66 0 0 Z " fill="#F8F8F8" transform="translate(250,207)"/>
<path d="M0 0 C1.15267365 -0.00073013 2.30534729 -0.00146027 3.49295044 -0.00221252 C7.25914486 0.00123876 11.0240638 0.03998545 14.79003906 0.0793457 C17.41847051 0.08868252 20.04691071 0.09579452 22.675354 0.1007843 C28.85879755 0.11623993 35.04179183 0.15715388 41.22503877 0.20753175 C48.27227756 0.26368572 55.31953938 0.29097669 62.3669467 0.31600893 C76.84674943 0.36807891 91.32620045 0.45585723 105.80566406 0.56762695 C102.81049044 2.88329207 100.0678553 4.44431609 96.55175781 5.87231445 C95.53146484 6.29125977 94.51117188 6.71020508 93.45996094 7.1418457 C92.39841797 7.57110352 91.336875 8.00036133 90.24316406 8.44262695 C83.18040228 11.32053736 76.17001889 14.25477107 69.25073242 17.46484375 C66.83555961 18.55414336 64.39980761 19.54531622 61.93066406 20.50512695 C57.99846963 22.04435362 54.18821432 23.76809915 50.36816406 25.56762695 C46.43305199 27.40891043 42.53552669 29.08397838 38.43066406 30.50512695 C33.20431841 32.32862565 28.27787085 34.62299744 23.28710938 36.9987793 C19.02408377 39.0215969 14.73263092 40.83801994 10.33300781 42.53637695 C6.2028357 44.22164038 2.19689668 46.17209231 -1.82324219 48.1027832 C-5.84409043 49.84996523 -10.03526404 51.18126965 -14.19433594 52.56762695 C24.08566406 52.89762695 62.36566406 53.22762695 101.80566406 53.56762695 C101.80566406 53.89762695 101.80566406 54.22762695 101.80566406 54.56762695 C62.53566406 54.56762695 23.26566406 54.56762695 -17.19433594 54.56762695 C-17.19433594 70.73762695 -17.19433594 86.90762695 -17.19433594 103.56762695 C-32.43196926 103.5901745 -47.6695951 103.60860644 -62.90724087 103.61943913 C-69.98186781 103.62460195 -77.05648368 103.63164439 -84.13110352 103.64306641 C-90.95212472 103.65407377 -97.77313437 103.65990314 -104.59416389 103.6625042 C-107.20300541 103.664359 -109.81184627 103.66798065 -112.42068291 103.67335701 C-116.06066146 103.68056338 -119.70059169 103.68161807 -123.34057617 103.68115234 C-124.4310173 103.68474762 -125.52145844 103.6883429 -126.64494324 103.69204712 C-127.63077393 103.69067245 -128.61660461 103.68929779 -129.63230896 103.68788147 C-130.4941854 103.68880326 -131.35606184 103.68972506 -132.24405575 103.69067478 C-134.19433594 103.56762695 -134.19433594 103.56762695 -135.19433594 102.56762695 C-135.41183629 100.99962311 -135.56626873 99.42279872 -135.69433594 97.8449707 C-135.77635254 96.84199951 -135.85836914 95.83902832 -135.94287109 94.80566406 C-136.06734619 93.17189819 -136.06734619 93.17189819 -136.19433594 91.50512695 C-136.28118652 90.3972583 -136.36803711 89.28938965 -136.45751953 88.14794922 C-137.3248114 76.63314456 -137.81066284 65.10745321 -138.19433594 53.56762695 C-132.75656524 50.77852211 -127.37827174 48.11141951 -121.63183594 46.00512695 C-117.93329247 44.61979154 -114.28665687 43.20888918 -110.69433594 41.56762695 C-107.16131495 39.9558473 -103.57971338 38.55806776 -99.94433594 37.19262695 C-94.31332866 35.05808233 -88.89754246 32.60552304 -83.45214844 30.0402832 C-79.14389409 28.09278693 -74.74472329 26.44589721 -70.31933594 24.78637695 C-67.34451581 23.6261971 -64.46301704 22.35331929 -61.56933594 21.00512695 C-58.1911359 19.43667694 -54.83691948 18.03993192 -51.31933594 16.81762695 C-43.91959167 14.20908401 -36.76831474 11.00239641 -29.57324219 7.8840332 C-28.74738239 7.53254054 -27.9215226 7.18104788 -27.07063675 6.81890392 C-25.19024725 6.00087819 -23.32311905 5.15147587 -21.47275925 4.26762104 C-14.09474123 0.88107421 -8.06685753 -0.13677315 0 0 Z " fill="#D7DADC" transform="translate(267.1943359375,152.432373046875)"/>
<path d="M0 0 C17.49 0 34.98 0 53 0 C53.495 4.33125 53.99 8.6625 54.5 13.125 C54.65662109 14.45934082 54.81324219 15.79368164 54.97460938 17.16845703 C55.89599799 25.50361143 56.17403918 33.61872426 56 42 C57.18078125 42.13148438 58.3615625 42.26296875 59.578125 42.3984375 C63.39062929 42.87792424 67.02702463 43.65635256 70.75 44.625 C72.13015076 44.97808971 73.5103646 45.33093288 74.890625 45.68359375 C75.67501953 45.88581543 76.45941406 46.08803711 77.26757812 46.29638672 C83.00806391 47.77459258 88.75338112 49.2333478 94.5 50.6875 C95.70495117 50.99703613 96.90990234 51.30657227 98.15136719 51.62548828 C104.10405123 53.13065985 109.88286859 54.43219696 116 55 C114.515 55.495 114.515 55.495 113 56 C113 73.82 113 91.64 113 110 C114.485 110.495 114.485 110.495 116 111 C109.59501423 110.56576368 104.02812612 109.21130551 97.9296875 107.23828125 C93.11653991 105.69183241 88.24258185 104.36278591 83.375 103 C76.90610042 101.18049726 70.59711832 99.20334089 64.3203125 96.79296875 C61.94384112 95.98080766 59.65935986 95.49567158 57.1875 95.0625 C51.75322216 94.09086488 46.75940987 92.20358572 41.58984375 90.30078125 C33.74048906 87.45656459 25.86247606 84.93021965 17.609375 83.58984375 C13.64347861 82.69336118 9.83948583 81.32821237 6 80 C3.3431425 53.3659291 1.63581457 26.71830462 0 0 Z " fill="#DFDFDF" transform="translate(137,284)"/>
<path d="M0 0 C42.57 0 85.14 0 129 0 C129 10.82787263 129 10.82787263 128 15 C127.81800415 16.76956218 127.66449611 18.54221799 127.53515625 20.31640625 C127.41817383 21.83524414 127.41817383 21.83524414 127.29882812 23.38476562 C127.14331984 25.47577378 126.98962427 27.56691767 126.83789062 29.65820312 C126.75861328 30.67978516 126.67933594 31.70136719 126.59765625 32.75390625 C126.53070557 33.66470947 126.46375488 34.5755127 126.39477539 35.51391602 C125.80701914 40.7041272 124.85871918 45.84768489 124 51 C83.08 51 42.16 51 0 51 C0 34.17 0 17.34 0 0 Z " fill="#F7F8F8" transform="translate(250,102)"/>
<path d="M0 0 C15.62878361 -0.02332938 31.25756253 -0.04097937 46.88635921 -0.05181217 C54.14258849 -0.05697505 61.39880696 -0.06401758 68.6550293 -0.07543945 C74.97733856 -0.08538656 81.29964001 -0.09185349 87.62195688 -0.09408849 C90.9715675 -0.09539556 94.32115574 -0.09848113 97.6707592 -0.10573006 C101.40413645 -0.1129362 105.13746658 -0.11399112 108.87084961 -0.11352539 C109.98934296 -0.11712067 111.1078363 -0.12071594 112.26022339 -0.12442017 C113.27129654 -0.1230455 114.28236969 -0.12167084 115.32408142 -0.12025452 C116.65008063 -0.12163721 116.65008063 -0.12163721 118.0028677 -0.12304783 C120 0 120 0 121 1 C121.09319449 2.5348297 121.117458 4.07392082 121.11352539 5.61157227 C121.11341209 7.08298424 121.11341209 7.08298424 121.11329651 8.5841217 C121.10813522 9.6507756 121.10297394 10.7174295 121.09765625 11.81640625 C121.0962413 12.9025975 121.09482635 13.98878876 121.09336853 15.1078949 C121.08775048 18.59279075 121.07519492 22.07762342 121.0625 25.5625 C121.05748733 27.91861887 121.05292402 30.27473874 121.04882812 32.63085938 C121.03777519 38.42059464 121.02101951 44.21029281 121 50 C105.76236936 50.02332961 90.52473954 50.04097948 75.28709507 50.05181217 C68.21246813 50.056975 61.13785226 50.06401744 54.06323242 50.07543945 C47.24221122 50.08644681 40.42120156 50.09227618 33.60017204 50.09487724 C30.99133052 50.09673205 28.38248967 50.1003537 25.77365303 50.10573006 C22.13367448 50.11293643 18.49374425 50.11399111 14.85375977 50.11352539 C13.76331863 50.11712067 12.6728775 50.12071594 11.5493927 50.12442017 C10.56356201 50.1230455 9.57773132 50.12167084 8.56202698 50.12025452 C7.70015054 50.12117631 6.8382741 50.1220981 5.95028019 50.12304783 C4 50 4 50 3 49 C2.49132121 45.33283215 2.28304498 41.62814124 2 37.9375 C1.9175 36.95072266 1.835 35.96394531 1.75 34.94726562 C1.13444195 27.14218188 0.78399362 19.33613559 0.46875 11.51391602 C0.42331055 10.4043177 0.37787109 9.29471939 0.33105469 8.15149689 C0.21989942 5.43436298 0.10956866 2.71719827 0 0 Z " fill="#E1E0DF" transform="translate(129,206)"/>
<path d="M0 0 C59.07 0 118.14 0 179 0 C179 13.5 179 13.5 178.6328125 18.41113281 C178.51268799 20.06148529 178.51268799 20.06148529 178.39013672 21.74517822 C178.25889404 23.45686188 178.25889404 23.45686188 178.125 25.203125 C178.03621582 26.4069281 177.94743164 27.6107312 177.85595703 28.85101318 C177.57475602 32.65099507 177.28748365 36.45048879 177 40.25 C176.80688811 42.84502208 176.61417599 45.44007395 176.421875 48.03515625 C175.95253488 54.35712229 175.47822525 60.6787002 175 67 C169.1734784 68.75831501 163.34161378 70.48936279 157.48828125 72.15625 C156.13990417 72.54272534 154.79159892 72.92945137 153.44335938 73.31640625 C151.37067626 73.91099016 149.29765316 74.50421618 147.22338867 75.09326172 C145.18544654 75.67251928 143.14925975 76.25763332 141.11328125 76.84375 C139.91485596 77.18599609 138.71643066 77.52824219 137.48168945 77.88085938 C133.96804525 78.92643184 133.96804525 78.92643184 130.68041992 80.57226562 C127 82 127 82 117 83 C117 55.94 117 28.88 117 1 C78.39 1 39.78 1 0 1 C0 0.67 0 0.34 0 0 Z " fill="#3E9CD6" transform="translate(133,256)"/>
</svg>
