<svg xmlns="http://www.w3.org/2000/svg" xmlns:xlink="http://www.w3.org/1999/xlink" width="500" zoomAndPan="magnify" viewBox="0 0 375 374.999991" height="500" preserveAspectRatio="xMidYMid meet" version="1.0"><defs><clipPath id="854137c22f"><path d="M 15 10.21875 L 360 10.21875 L 360 364.96875 L 15 364.96875 Z M 15 10.21875 " clip-rule="nonzero"/></clipPath></defs><g clip-path="url(#854137c22f)"><path fill="#ff2d20" d="M 359.398438 90.332031 C 359.527344 90.804688 359.59375 91.292969 359.59375 91.78125 L 359.59375 167.792969 C 359.59375 169.78125 358.53125 171.613281 356.808594 172.601562 L 293.007812 209.332031 L 293.007812 282.140625 C 293.007812 284.121094 291.957031 285.949219 290.238281 286.945312 L 157.0625 363.613281 C 156.757812 363.785156 156.425781 363.894531 156.089844 364.011719 C 155.96875 364.054688 155.847656 364.132812 155.71875 364.164062 C 154.785156 364.410156 153.808594 364.410156 152.878906 364.164062 C 152.726562 364.125 152.585938 364.042969 152.441406 363.984375 C 152.136719 363.875 151.816406 363.777344 151.527344 363.613281 L 18.378906 286.945312 C 16.65625 285.957031 15.59375 284.125 15.59375 282.140625 L 15.59375 54.097656 C 15.59375 53.601562 15.664062 53.117188 15.789062 52.644531 C 15.828125 52.484375 15.925781 52.339844 15.980469 52.179688 C 16.085938 51.890625 16.183594 51.589844 16.335938 51.320312 C 16.4375 51.140625 16.589844 50.996094 16.714844 50.828125 C 16.875 50.605469 17.019531 50.378906 17.207031 50.183594 C 17.367188 50.027344 17.574219 49.90625 17.753906 49.769531 C 17.957031 49.601562 18.136719 49.421875 18.363281 49.292969 L 18.371094 49.292969 L 84.949219 10.957031 C 86.664062 9.972656 88.777344 9.972656 90.492188 10.957031 L 157.070312 49.292969 L 157.082031 49.292969 C 157.304688 49.429688 157.492188 49.601562 157.691406 49.761719 C 157.871094 49.902344 158.074219 50.027344 158.234375 50.179688 C 158.425781 50.378906 158.566406 50.605469 158.730469 50.828125 C 158.847656 50.996094 159.007812 51.140625 159.105469 51.320312 C 159.265625 51.597656 159.355469 51.890625 159.464844 52.179688 C 159.519531 52.339844 159.617188 52.484375 159.660156 52.652344 C 159.789062 53.125 159.851562 53.609375 159.855469 54.097656 L 159.855469 196.53125 L 215.332031 164.585938 L 215.332031 91.773438 C 215.332031 91.289062 215.402344 90.796875 215.527344 90.332031 C 215.574219 90.164062 215.664062 90.019531 215.71875 89.859375 C 215.832031 89.570312 215.929688 89.273438 216.082031 89.003906 C 216.183594 88.820312 216.335938 88.675781 216.453125 88.511719 C 216.621094 88.289062 216.757812 88.058594 216.953125 87.867188 C 217.113281 87.707031 217.3125 87.589844 217.492188 87.449219 C 217.703125 87.285156 217.882812 87.105469 218.105469 86.972656 L 218.109375 86.972656 L 284.695312 48.640625 C 286.410156 47.652344 288.523438 47.652344 290.238281 48.640625 L 356.816406 86.972656 C 357.050781 87.109375 357.230469 87.285156 357.4375 87.441406 C 357.613281 87.582031 357.8125 87.707031 357.972656 87.859375 C 358.164062 88.058594 358.304688 88.289062 358.472656 88.511719 C 358.59375 88.675781 358.746094 88.820312 358.84375 89.003906 C 359.003906 89.273438 359.09375 89.570312 359.207031 89.859375 C 359.265625 90.019531 359.359375 90.164062 359.398438 90.332031 Z M 348.496094 164.585938 L 348.496094 101.375 L 325.195312 114.789062 L 293.007812 133.320312 L 293.007812 196.53125 L 348.5 164.585938 Z M 281.917969 278.929688 L 281.917969 215.679688 L 250.257812 233.761719 L 159.847656 285.359375 L 159.847656 349.207031 Z M 26.691406 63.695312 L 26.691406 278.929688 L 148.75 349.203125 L 148.75 285.367188 L 84.984375 249.28125 L 84.960938 249.265625 L 84.933594 249.253906 C 84.71875 249.128906 84.539062 248.949219 84.339844 248.796875 C 84.164062 248.65625 83.964844 248.546875 83.8125 248.394531 L 83.796875 248.371094 C 83.617188 248.199219 83.492188 247.984375 83.339844 247.789062 C 83.203125 247.601562 83.035156 247.445312 82.925781 247.25 L 82.917969 247.230469 C 82.792969 247.019531 82.71875 246.773438 82.628906 246.535156 C 82.539062 246.328125 82.421875 246.132812 82.363281 245.914062 L 82.363281 245.90625 C 82.296875 245.644531 82.28125 245.367188 82.253906 245.09375 C 82.226562 244.886719 82.171875 244.679688 82.171875 244.472656 L 82.171875 95.640625 L 49.992188 77.101562 L 26.691406 63.699219 Z M 87.726562 22.167969 L 32.253906 54.097656 L 87.714844 86.03125 L 143.179688 54.09375 L 87.714844 22.167969 Z M 116.574219 221.445312 L 148.753906 202.917969 L 148.753906 63.695312 L 125.457031 77.105469 L 93.269531 95.640625 L 93.269531 234.863281 Z M 287.464844 59.847656 L 232 91.78125 L 287.464844 123.710938 L 342.925781 91.773438 Z M 281.917969 133.320312 L 249.730469 114.789062 L 226.429688 101.375 L 226.429688 164.585938 L 258.613281 183.109375 L 281.917969 196.53125 Z M 154.289062 275.765625 L 235.644531 229.320312 L 276.3125 206.113281 L 220.890625 174.203125 L 157.074219 210.941406 L 98.914062 244.421875 Z M 154.289062 275.765625 " fill-opacity="1" fill-rule="nonzero"/></g></svg>