<svg xmlns="http://www.w3.org/2000/svg" xmlns:xlink="http://www.w3.org/1999/xlink" width="500" zoomAndPan="magnify" viewBox="0 0 375 374.999991" height="500" preserveAspectRatio="xMidYMid meet" version="1.0"><defs><clipPath id="92bc01956c"><path d="M 11.433594 94 L 363.933594 94 L 363.933594 281 L 11.433594 281 Z M 11.433594 94 " clip-rule="nonzero"/></clipPath><clipPath id="2180aea3d3"><path d="M 363.933594 187.410156 C 363.933594 188.925781 363.863281 190.441406 363.722656 191.957031 C 363.582031 193.46875 363.367188 194.984375 363.085938 196.492188 C 362.800781 198 362.449219 199.507812 362.027344 201.007812 C 361.601562 202.507812 361.109375 204 360.546875 205.488281 C 359.984375 206.976562 359.351562 208.453125 358.652344 209.925781 C 357.953125 211.398438 357.183594 212.859375 356.34375 214.308594 C 355.507812 215.761719 354.601562 217.199219 353.632812 218.628906 C 352.660156 220.054688 351.621094 221.46875 350.519531 222.871094 C 349.414062 224.273438 348.246094 225.660156 347.011719 227.03125 C 345.777344 228.402344 344.484375 229.753906 343.121094 231.09375 C 341.761719 232.429688 340.339844 233.75 338.859375 235.050781 C 337.375 236.351562 335.832031 237.632812 334.230469 238.894531 C 332.628906 240.152344 330.96875 241.394531 329.25 242.613281 C 327.53125 243.828125 325.757812 245.023438 323.925781 246.199219 C 322.097656 247.371094 320.214844 248.519531 318.277344 249.640625 C 316.339844 250.765625 314.351562 251.863281 312.3125 252.9375 C 310.273438 254.007812 308.183594 255.054688 306.046875 256.070312 C 303.910156 257.089844 301.726562 258.082031 299.496094 259.042969 C 297.265625 260.003906 294.992188 260.9375 292.675781 261.839844 C 290.359375 262.746094 288 263.617188 285.601562 264.460938 C 283.203125 265.304688 280.769531 266.113281 278.292969 266.894531 C 275.820312 267.671875 273.3125 268.421875 270.769531 269.136719 C 268.222656 269.851562 265.648438 270.53125 263.039062 271.179688 C 260.433594 271.828125 257.796875 272.441406 255.132812 273.023438 C 252.46875 273.605469 249.777344 274.148438 247.0625 274.660156 C 244.34375 275.171875 241.605469 275.648438 238.847656 276.085938 C 236.085938 276.527344 233.308594 276.933594 230.507812 277.300781 C 227.710938 277.667969 224.898438 278 222.070312 278.296875 C 219.238281 278.59375 216.398438 278.851562 213.546875 279.074219 C 210.691406 279.296875 207.832031 279.484375 204.960938 279.632812 C 202.089844 279.78125 199.214844 279.890625 196.332031 279.964844 C 193.453125 280.039062 190.570312 280.078125 187.683594 280.078125 C 184.800781 280.078125 181.917969 280.039062 179.035156 279.964844 C 176.15625 279.890625 173.277344 279.78125 170.410156 279.632812 C 167.539062 279.484375 164.675781 279.296875 161.824219 279.074219 C 158.96875 278.851562 156.128906 278.59375 153.300781 278.296875 C 150.46875 278 147.65625 277.667969 144.859375 277.300781 C 142.0625 276.933594 139.28125 276.527344 136.523438 276.085938 C 133.761719 275.648438 131.023438 275.171875 128.308594 274.660156 C 125.589844 274.148438 122.902344 273.605469 120.234375 273.023438 C 117.570312 272.445312 114.933594 271.828125 112.328125 271.179688 C 109.71875 270.53125 107.144531 269.851562 104.601562 269.136719 C 102.054688 268.421875 99.546875 267.671875 97.074219 266.894531 C 94.597656 266.113281 92.164062 265.304688 89.765625 264.460938 C 87.367188 263.617188 85.007812 262.746094 82.691406 261.839844 C 80.375 260.9375 78.101562 260.003906 75.871094 259.042969 C 73.644531 258.082031 71.460938 257.089844 69.320312 256.070312 C 67.183594 255.054688 65.097656 254.007812 63.054688 252.9375 C 61.015625 251.863281 59.027344 250.765625 57.089844 249.640625 C 55.15625 248.519531 53.269531 247.371094 51.441406 246.199219 C 49.609375 245.023438 47.835938 243.828125 46.117188 242.613281 C 44.402344 241.394531 42.738281 240.152344 41.136719 238.894531 C 39.535156 237.632812 37.992188 236.351562 36.507812 235.050781 C 35.027344 233.75 33.605469 232.429688 32.246094 231.09375 C 30.886719 229.753906 29.589844 228.402344 28.355469 227.03125 C 27.121094 225.660156 25.953125 224.273438 24.851562 222.871094 C 23.746094 221.46875 22.707031 220.054688 21.738281 218.628906 C 20.765625 217.199219 19.859375 215.761719 19.023438 214.308594 C 18.1875 212.859375 17.417969 211.398438 16.714844 209.925781 C 16.015625 208.453125 15.382812 206.976562 14.820312 205.488281 C 14.257812 204 13.765625 202.507812 13.34375 201.007812 C 12.917969 199.507812 12.566406 198 12.28125 196.492188 C 12 194.984375 11.789062 193.46875 11.648438 191.957031 C 11.503906 190.441406 11.433594 188.925781 11.433594 187.410156 C 11.433594 185.890625 11.503906 184.375 11.648438 182.863281 C 11.789062 181.347656 12 179.835938 12.28125 178.324219 C 12.566406 176.816406 12.917969 175.3125 13.34375 173.8125 C 13.765625 172.3125 14.257812 170.816406 14.820312 169.328125 C 15.382812 167.84375 16.015625 166.363281 16.714844 164.890625 C 17.417969 163.421875 18.1875 161.960938 19.023438 160.507812 C 19.859375 159.058594 20.765625 157.617188 21.738281 156.191406 C 22.707031 154.761719 23.746094 153.347656 24.851562 151.945312 C 25.953125 150.542969 27.121094 149.160156 28.355469 147.789062 C 29.589844 146.417969 30.886719 145.0625 32.246094 143.726562 C 33.605469 142.386719 35.027344 141.066406 36.507812 139.765625 C 37.992188 138.464844 39.535156 137.1875 41.136719 135.925781 C 42.738281 134.664062 44.402344 133.425781 46.117188 132.207031 C 47.835938 130.988281 49.609375 129.792969 51.441406 128.621094 C 53.269531 127.449219 55.15625 126.300781 57.089844 125.175781 C 59.027344 124.050781 61.015625 122.953125 63.054688 121.882812 C 65.097656 120.808594 67.183594 119.765625 69.320312 118.746094 C 71.460938 117.726562 73.644531 116.738281 75.871094 115.773438 C 78.101562 114.8125 80.375 113.878906 82.691406 112.976562 C 85.007812 112.074219 87.367188 111.199219 89.765625 110.355469 C 92.164062 109.515625 94.597656 108.703125 97.074219 107.925781 C 99.546875 107.144531 102.054688 106.398438 104.601562 105.683594 C 107.144531 104.96875 109.71875 104.285156 112.328125 103.636719 C 114.933594 102.988281 117.570312 102.375 120.234375 101.792969 C 122.902344 101.214844 125.589844 100.667969 128.308594 100.15625 C 131.023438 99.644531 133.761719 99.171875 136.523438 98.730469 C 139.28125 98.289062 142.0625 97.886719 144.859375 97.515625 C 147.65625 97.148438 150.46875 96.816406 153.300781 96.519531 C 156.128906 96.226562 158.96875 95.964844 161.824219 95.742188 C 164.675781 95.519531 167.539062 95.335938 170.410156 95.1875 C 173.277344 95.039062 176.15625 94.925781 179.035156 94.851562 C 181.917969 94.777344 184.800781 94.738281 187.683594 94.738281 C 190.570312 94.738281 193.453125 94.777344 196.332031 94.851562 C 199.214844 94.925781 202.089844 95.039062 204.960938 95.1875 C 207.832031 95.335938 210.691406 95.519531 213.546875 95.742188 C 216.398438 95.964844 219.238281 96.226562 222.070312 96.519531 C 224.898438 96.816406 227.710938 97.148438 230.507812 97.515625 C 233.308594 97.886719 236.085938 98.289062 238.847656 98.730469 C 241.605469 99.171875 244.34375 99.644531 247.0625 100.15625 C 249.777344 100.667969 252.46875 101.214844 255.132812 101.792969 C 257.796875 102.375 260.433594 102.988281 263.039062 103.636719 C 265.648438 104.285156 268.222656 104.96875 270.769531 105.683594 C 273.3125 106.398438 275.820312 107.144531 278.292969 107.925781 C 280.769531 108.703125 283.203125 109.515625 285.601562 110.355469 C 288 111.199219 290.359375 112.074219 292.675781 112.976562 C 294.992188 113.878906 297.265625 114.8125 299.496094 115.773438 C 301.726562 116.738281 303.910156 117.726562 306.046875 118.746094 C 308.183594 119.765625 310.273438 120.808594 312.3125 121.882812 C 314.351562 122.953125 316.339844 124.050781 318.277344 125.175781 C 320.214844 126.300781 322.097656 127.449219 323.925781 128.621094 C 325.757812 129.792969 327.53125 130.988281 329.25 132.207031 C 330.96875 133.425781 332.628906 134.664062 334.230469 135.925781 C 335.832031 137.1875 337.375 138.464844 338.859375 139.765625 C 340.339844 141.066406 341.761719 142.386719 343.121094 143.726562 C 344.484375 145.0625 345.777344 146.417969 347.011719 147.789062 C 348.246094 149.160156 349.414062 150.542969 350.519531 151.945312 C 351.621094 153.347656 352.660156 154.761719 353.632812 156.191406 C 354.601562 157.617188 355.507812 159.058594 356.34375 160.507812 C 357.183594 161.960938 357.953125 163.421875 358.652344 164.890625 C 359.351562 166.363281 359.984375 167.84375 360.546875 169.328125 C 361.109375 170.816406 361.601562 172.3125 362.027344 173.8125 C 362.449219 175.3125 362.800781 176.816406 363.085938 178.324219 C 363.367188 179.835938 363.582031 181.347656 363.722656 182.863281 C 363.863281 184.375 363.933594 185.890625 363.933594 187.410156 Z M 363.933594 187.410156 " clip-rule="nonzero"/></clipPath><radialGradient gradientTransform="matrix(1, 0, 0, 1, 116.722078, 207.537385)" gradientUnits="userSpaceOnUse" r="231.45948" cx="0.533612" id="d4d6963abd" cy="-80.208196" fx="0.533612" fy="-80.208196"><stop stop-opacity="1" stop-color="rgb(99.725342%, 99.772644%, 99.839783%)" offset="0"/><stop stop-opacity="1" stop-color="rgb(99.176025%, 99.319458%, 99.520874%)" offset="0.00390625"/><stop stop-opacity="1" stop-color="rgb(98.628235%, 98.866272%, 99.201965%)" offset="0.0078125"/><stop stop-opacity="1" stop-color="rgb(98.078918%, 98.413086%, 98.883057%)" offset="0.0117188"/><stop stop-opacity="1" stop-color="rgb(97.531128%, 97.9599%, 98.564148%)" offset="0.015625"/><stop stop-opacity="1" stop-color="rgb(96.981812%, 97.506714%, 98.245239%)" offset="0.0195312"/><stop stop-opacity="1" stop-color="rgb(96.434021%, 97.053528%, 97.926331%)" offset="0.0234375"/><stop stop-opacity="1" stop-color="rgb(95.88623%, 96.600342%, 97.607422%)" offset="0.0273438"/><stop stop-opacity="1" stop-color="rgb(95.336914%, 96.147156%, 97.288513%)" offset="0.03125"/><stop stop-opacity="1" stop-color="rgb(94.789124%, 95.69397%, 96.97113%)" offset="0.0351562"/><stop stop-opacity="1" stop-color="rgb(94.239807%, 95.240784%, 96.652222%)" offset="0.0390625"/><stop stop-opacity="1" stop-color="rgb(93.692017%, 94.787598%, 96.333313%)" offset="0.0429688"/><stop stop-opacity="1" stop-color="rgb(93.1427%, 94.334412%, 96.014404%)" offset="0.046875"/><stop stop-opacity="1" stop-color="rgb(92.59491%, 93.881226%, 95.695496%)" offset="0.0507812"/><stop stop-opacity="1" stop-color="rgb(92.047119%, 93.42804%, 95.376587%)" offset="0.0546875"/><stop stop-opacity="1" stop-color="rgb(91.497803%, 92.974854%, 95.057678%)" offset="0.0585938"/><stop stop-opacity="1" stop-color="rgb(90.950012%, 92.521667%, 94.73877%)" offset="0.0625"/><stop stop-opacity="1" stop-color="rgb(90.400696%, 92.068481%, 94.419861%)" offset="0.0664062"/><stop stop-opacity="1" stop-color="rgb(89.852905%, 91.615295%, 94.100952%)" offset="0.0703125"/><stop stop-opacity="1" stop-color="rgb(89.303589%, 91.162109%, 93.783569%)" offset="0.0742188"/><stop stop-opacity="1" stop-color="rgb(88.755798%, 90.708923%, 93.464661%)" offset="0.078125"/><stop stop-opacity="1" stop-color="rgb(88.208008%, 90.255737%, 93.145752%)" offset="0.0820312"/><stop stop-opacity="1" stop-color="rgb(87.658691%, 89.802551%, 92.826843%)" offset="0.0859375"/><stop stop-opacity="1" stop-color="rgb(87.110901%, 89.349365%, 92.507935%)" offset="0.0898438"/><stop stop-opacity="1" stop-color="rgb(86.561584%, 88.897705%, 92.189026%)" offset="0.09375"/><stop stop-opacity="1" stop-color="rgb(86.013794%, 88.444519%, 91.870117%)" offset="0.0976562"/><stop stop-opacity="1" stop-color="rgb(85.464478%, 87.991333%, 91.551208%)" offset="0.101562"/><stop stop-opacity="1" stop-color="rgb(84.916687%, 87.538147%, 91.2323%)" offset="0.105469"/><stop stop-opacity="1" stop-color="rgb(84.368896%, 87.084961%, 90.914917%)" offset="0.109375"/><stop stop-opacity="1" stop-color="rgb(83.81958%, 86.631775%, 90.596008%)" offset="0.113281"/><stop stop-opacity="1" stop-color="rgb(83.27179%, 86.178589%, 90.2771%)" offset="0.117188"/><stop stop-opacity="1" stop-color="rgb(82.722473%, 85.725403%, 89.958191%)" offset="0.121094"/><stop stop-opacity="1" stop-color="rgb(82.174683%, 85.272217%, 89.639282%)" offset="0.125"/><stop stop-opacity="1" stop-color="rgb(81.626892%, 84.819031%, 89.320374%)" offset="0.128906"/><stop stop-opacity="1" stop-color="rgb(81.077576%, 84.365845%, 89.001465%)" offset="0.132812"/><stop stop-opacity="1" stop-color="rgb(80.529785%, 83.912659%, 88.682556%)" offset="0.136719"/><stop stop-opacity="1" stop-color="rgb(79.980469%, 83.459473%, 88.363647%)" offset="0.140625"/><stop stop-opacity="1" stop-color="rgb(79.432678%, 83.006287%, 88.044739%)" offset="0.144531"/><stop stop-opacity="1" stop-color="rgb(78.883362%, 82.553101%, 87.727356%)" offset="0.148438"/><stop stop-opacity="1" stop-color="rgb(78.335571%, 82.099915%, 87.408447%)" offset="0.152344"/><stop stop-opacity="1" stop-color="rgb(77.787781%, 81.646729%, 87.089539%)" offset="0.15625"/><stop stop-opacity="1" stop-color="rgb(77.238464%, 81.193542%, 86.77063%)" offset="0.160156"/><stop stop-opacity="1" stop-color="rgb(76.690674%, 80.740356%, 86.451721%)" offset="0.164062"/><stop stop-opacity="1" stop-color="rgb(76.141357%, 80.28717%, 86.132812%)" offset="0.167969"/><stop stop-opacity="1" stop-color="rgb(75.593567%, 79.833984%, 85.813904%)" offset="0.171875"/><stop stop-opacity="1" stop-color="rgb(75.04425%, 79.380798%, 85.494995%)" offset="0.175781"/><stop stop-opacity="1" stop-color="rgb(74.49646%, 78.927612%, 85.176086%)" offset="0.179688"/><stop stop-opacity="1" stop-color="rgb(73.948669%, 78.474426%, 84.857178%)" offset="0.183594"/><stop stop-opacity="1" stop-color="rgb(73.399353%, 78.02124%, 84.539795%)" offset="0.1875"/><stop stop-opacity="1" stop-color="rgb(72.851562%, 77.56958%, 84.220886%)" offset="0.191406"/><stop stop-opacity="1" stop-color="rgb(72.302246%, 77.116394%, 83.901978%)" offset="0.195312"/><stop stop-opacity="1" stop-color="rgb(71.754456%, 76.663208%, 83.583069%)" offset="0.199219"/><stop stop-opacity="1" stop-color="rgb(71.205139%, 76.210022%, 83.26416%)" offset="0.203125"/><stop stop-opacity="1" stop-color="rgb(70.657349%, 75.756836%, 82.945251%)" offset="0.207031"/><stop stop-opacity="1" stop-color="rgb(70.109558%, 75.30365%, 82.626343%)" offset="0.210938"/><stop stop-opacity="1" stop-color="rgb(69.560242%, 74.850464%, 82.307434%)" offset="0.214844"/><stop stop-opacity="1" stop-color="rgb(69.012451%, 74.397278%, 81.988525%)" offset="0.21875"/><stop stop-opacity="1" stop-color="rgb(68.463135%, 73.944092%, 81.671143%)" offset="0.222656"/><stop stop-opacity="1" stop-color="rgb(67.915344%, 73.490906%, 81.352234%)" offset="0.226562"/><stop stop-opacity="1" stop-color="rgb(67.366028%, 73.03772%, 81.033325%)" offset="0.230469"/><stop stop-opacity="1" stop-color="rgb(66.818237%, 72.584534%, 80.714417%)" offset="0.234375"/><stop stop-opacity="1" stop-color="rgb(66.270447%, 72.131348%, 80.395508%)" offset="0.238281"/><stop stop-opacity="1" stop-color="rgb(65.72113%, 71.678162%, 80.076599%)" offset="0.242188"/><stop stop-opacity="1" stop-color="rgb(65.17334%, 71.224976%, 79.75769%)" offset="0.246094"/><stop stop-opacity="1" stop-color="rgb(64.624023%, 70.77179%, 79.438782%)" offset="0.25"/><stop stop-opacity="1" stop-color="rgb(64.076233%, 70.318604%, 79.119873%)" offset="0.253906"/><stop stop-opacity="1" stop-color="rgb(63.528442%, 69.865417%, 78.800964%)" offset="0.257812"/><stop stop-opacity="1" stop-color="rgb(62.979126%, 69.412231%, 78.483582%)" offset="0.261719"/><stop stop-opacity="1" stop-color="rgb(62.431335%, 68.959045%, 78.164673%)" offset="0.265625"/><stop stop-opacity="1" stop-color="rgb(61.882019%, 68.505859%, 77.845764%)" offset="0.269531"/><stop stop-opacity="1" stop-color="rgb(61.334229%, 68.052673%, 77.526855%)" offset="0.273438"/><stop stop-opacity="1" stop-color="rgb(60.784912%, 67.599487%, 77.207947%)" offset="0.277344"/><stop stop-opacity="1" stop-color="rgb(60.237122%, 67.146301%, 76.889038%)" offset="0.28125"/><stop stop-opacity="1" stop-color="rgb(59.689331%, 66.693115%, 76.570129%)" offset="0.285156"/><stop stop-opacity="1" stop-color="rgb(59.140015%, 66.241455%, 76.251221%)" offset="0.289062"/><stop stop-opacity="1" stop-color="rgb(58.592224%, 65.788269%, 75.932312%)" offset="0.292969"/><stop stop-opacity="1" stop-color="rgb(58.042908%, 65.335083%, 75.614929%)" offset="0.296875"/><stop stop-opacity="1" stop-color="rgb(57.495117%, 64.881897%, 75.296021%)" offset="0.300781"/><stop stop-opacity="1" stop-color="rgb(56.945801%, 64.428711%, 74.977112%)" offset="0.304688"/><stop stop-opacity="1" stop-color="rgb(56.39801%, 63.975525%, 74.658203%)" offset="0.308594"/><stop stop-opacity="1" stop-color="rgb(55.85022%, 63.522339%, 74.339294%)" offset="0.3125"/><stop stop-opacity="1" stop-color="rgb(55.300903%, 63.069153%, 74.020386%)" offset="0.316406"/><stop stop-opacity="1" stop-color="rgb(54.753113%, 62.615967%, 73.701477%)" offset="0.320312"/><stop stop-opacity="1" stop-color="rgb(54.203796%, 62.162781%, 73.382568%)" offset="0.324219"/><stop stop-opacity="1" stop-color="rgb(53.656006%, 61.709595%, 73.06366%)" offset="0.328125"/><stop stop-opacity="1" stop-color="rgb(53.106689%, 61.256409%, 72.744751%)" offset="0.332031"/><stop stop-opacity="1" stop-color="rgb(52.558899%, 60.803223%, 72.427368%)" offset="0.335938"/><stop stop-opacity="1" stop-color="rgb(52.011108%, 60.350037%, 72.108459%)" offset="0.339844"/><stop stop-opacity="1" stop-color="rgb(51.461792%, 59.896851%, 71.789551%)" offset="0.34375"/><stop stop-opacity="1" stop-color="rgb(50.914001%, 59.443665%, 71.470642%)" offset="0.347656"/><stop stop-opacity="1" stop-color="rgb(50.364685%, 58.990479%, 71.151733%)" offset="0.351562"/><stop stop-opacity="1" stop-color="rgb(49.816895%, 58.537292%, 70.832825%)" offset="0.355469"/><stop stop-opacity="1" stop-color="rgb(49.267578%, 58.084106%, 70.513916%)" offset="0.359375"/><stop stop-opacity="1" stop-color="rgb(48.719788%, 57.63092%, 70.195007%)" offset="0.363281"/><stop stop-opacity="1" stop-color="rgb(48.171997%, 57.177734%, 69.876099%)" offset="0.367188"/><stop stop-opacity="1" stop-color="rgb(47.622681%, 56.724548%, 69.55719%)" offset="0.371094"/><stop stop-opacity="1" stop-color="rgb(47.07489%, 56.271362%, 69.239807%)" offset="0.375"/><stop stop-opacity="1" stop-color="rgb(46.525574%, 55.818176%, 68.920898%)" offset="0.378906"/><stop stop-opacity="1" stop-color="rgb(45.977783%, 55.36499%, 68.60199%)" offset="0.382812"/><stop stop-opacity="1" stop-color="rgb(45.429993%, 54.91333%, 68.283081%)" offset="0.386719"/><stop stop-opacity="1" stop-color="rgb(44.880676%, 54.460144%, 67.964172%)" offset="0.390625"/><stop stop-opacity="1" stop-color="rgb(44.332886%, 54.006958%, 67.645264%)" offset="0.394531"/><stop stop-opacity="1" stop-color="rgb(43.783569%, 53.553772%, 67.326355%)" offset="0.398438"/><stop stop-opacity="1" stop-color="rgb(43.235779%, 53.100586%, 67.007446%)" offset="0.402344"/><stop stop-opacity="1" stop-color="rgb(42.686462%, 52.6474%, 66.688538%)" offset="0.40625"/><stop stop-opacity="1" stop-color="rgb(42.138672%, 52.194214%, 66.371155%)" offset="0.410156"/><stop stop-opacity="1" stop-color="rgb(41.590881%, 51.741028%, 66.052246%)" offset="0.414062"/><stop stop-opacity="1" stop-color="rgb(41.041565%, 51.287842%, 65.733337%)" offset="0.417969"/><stop stop-opacity="1" stop-color="rgb(40.493774%, 50.834656%, 65.414429%)" offset="0.421875"/><stop stop-opacity="1" stop-color="rgb(39.944458%, 50.38147%, 65.09552%)" offset="0.425781"/><stop stop-opacity="1" stop-color="rgb(39.396667%, 49.928284%, 64.776611%)" offset="0.429688"/><stop stop-opacity="1" stop-color="rgb(38.847351%, 49.475098%, 64.457703%)" offset="0.433594"/><stop stop-opacity="1" stop-color="rgb(38.299561%, 49.021912%, 64.138794%)" offset="0.4375"/><stop stop-opacity="1" stop-color="rgb(37.75177%, 48.568726%, 63.819885%)" offset="0.441406"/><stop stop-opacity="1" stop-color="rgb(37.202454%, 48.11554%, 63.500977%)" offset="0.445312"/><stop stop-opacity="1" stop-color="rgb(36.654663%, 47.662354%, 63.183594%)" offset="0.449219"/><stop stop-opacity="1" stop-color="rgb(36.105347%, 47.209167%, 62.864685%)" offset="0.453125"/><stop stop-opacity="1" stop-color="rgb(35.557556%, 46.755981%, 62.545776%)" offset="0.457031"/><stop stop-opacity="1" stop-color="rgb(35.00824%, 46.302795%, 62.226868%)" offset="0.460938"/><stop stop-opacity="1" stop-color="rgb(34.460449%, 45.849609%, 61.907959%)" offset="0.464844"/><stop stop-opacity="1" stop-color="rgb(33.912659%, 45.396423%, 61.58905%)" offset="0.46875"/><stop stop-opacity="1" stop-color="rgb(33.363342%, 44.943237%, 61.270142%)" offset="0.472656"/><stop stop-opacity="1" stop-color="rgb(32.815552%, 44.490051%, 60.951233%)" offset="0.476562"/><stop stop-opacity="1" stop-color="rgb(32.266235%, 44.036865%, 60.632324%)" offset="0.480469"/><stop stop-opacity="1" stop-color="rgb(31.718445%, 43.585205%, 60.314941%)" offset="0.484375"/><stop stop-opacity="1" stop-color="rgb(31.170654%, 43.132019%, 59.996033%)" offset="0.488281"/><stop stop-opacity="1" stop-color="rgb(30.621338%, 42.678833%, 59.677124%)" offset="0.492188"/><stop stop-opacity="1" stop-color="rgb(30.073547%, 42.225647%, 59.358215%)" offset="0.496094"/><stop stop-opacity="1" stop-color="rgb(29.736328%, 41.882324%, 59.016418%)" offset="0.5"/><stop stop-opacity="1" stop-color="rgb(29.60968%, 41.648865%, 58.651733%)" offset="0.503906"/><stop stop-opacity="1" stop-color="rgb(29.484558%, 41.416931%, 58.287048%)" offset="0.507812"/><stop stop-opacity="1" stop-color="rgb(29.359436%, 41.183472%, 57.922363%)" offset="0.511719"/><stop stop-opacity="1" stop-color="rgb(29.232788%, 40.951538%, 57.556152%)" offset="0.515625"/><stop stop-opacity="1" stop-color="rgb(29.107666%, 40.718079%, 57.191467%)" offset="0.519531"/><stop stop-opacity="1" stop-color="rgb(28.981018%, 40.486145%, 56.826782%)" offset="0.523438"/><stop stop-opacity="1" stop-color="rgb(28.855896%, 40.252686%, 56.462097%)" offset="0.527344"/><stop stop-opacity="1" stop-color="rgb(28.729248%, 40.019226%, 56.097412%)" offset="0.53125"/><stop stop-opacity="1" stop-color="rgb(28.604126%, 39.787292%, 55.732727%)" offset="0.535156"/><stop stop-opacity="1" stop-color="rgb(28.477478%, 39.553833%, 55.368042%)" offset="0.539062"/><stop stop-opacity="1" stop-color="rgb(28.352356%, 39.321899%, 55.003357%)" offset="0.542969"/><stop stop-opacity="1" stop-color="rgb(28.227234%, 39.08844%, 54.638672%)" offset="0.546875"/><stop stop-opacity="1" stop-color="rgb(28.100586%, 38.856506%, 54.272461%)" offset="0.550781"/><stop stop-opacity="1" stop-color="rgb(27.975464%, 38.623047%, 53.907776%)" offset="0.554688"/><stop stop-opacity="1" stop-color="rgb(27.848816%, 38.389587%, 53.543091%)" offset="0.558594"/><stop stop-opacity="1" stop-color="rgb(27.723694%, 38.157654%, 53.178406%)" offset="0.5625"/><stop stop-opacity="1" stop-color="rgb(27.597046%, 37.924194%, 52.813721%)" offset="0.566406"/><stop stop-opacity="1" stop-color="rgb(27.471924%, 37.692261%, 52.449036%)" offset="0.570312"/><stop stop-opacity="1" stop-color="rgb(27.346802%, 37.458801%, 52.084351%)" offset="0.574219"/><stop stop-opacity="1" stop-color="rgb(27.220154%, 37.226868%, 51.719666%)" offset="0.578125"/><stop stop-opacity="1" stop-color="rgb(27.095032%, 36.993408%, 51.35498%)" offset="0.582031"/><stop stop-opacity="1" stop-color="rgb(26.968384%, 36.759949%, 50.990295%)" offset="0.585938"/><stop stop-opacity="1" stop-color="rgb(26.843262%, 36.528015%, 50.624084%)" offset="0.589844"/><stop stop-opacity="1" stop-color="rgb(26.716614%, 36.294556%, 50.259399%)" offset="0.59375"/><stop stop-opacity="1" stop-color="rgb(26.591492%, 36.062622%, 49.894714%)" offset="0.597656"/><stop stop-opacity="1" stop-color="rgb(26.46637%, 35.829163%, 49.530029%)" offset="0.601562"/><stop stop-opacity="1" stop-color="rgb(26.339722%, 35.595703%, 49.165344%)" offset="0.605469"/><stop stop-opacity="1" stop-color="rgb(26.2146%, 35.36377%, 48.800659%)" offset="0.609375"/><stop stop-opacity="1" stop-color="rgb(26.087952%, 35.13031%, 48.435974%)" offset="0.613281"/><stop stop-opacity="1" stop-color="rgb(25.96283%, 34.898376%, 48.071289%)" offset="0.617188"/><stop stop-opacity="1" stop-color="rgb(25.836182%, 34.664917%, 47.706604%)" offset="0.621094"/><stop stop-opacity="1" stop-color="rgb(25.71106%, 34.432983%, 47.340393%)" offset="0.625"/><stop stop-opacity="1" stop-color="rgb(25.585938%, 34.199524%, 46.975708%)" offset="0.628906"/><stop stop-opacity="1" stop-color="rgb(25.45929%, 33.966064%, 46.611023%)" offset="0.632812"/><stop stop-opacity="1" stop-color="rgb(25.334167%, 33.734131%, 46.246338%)" offset="0.636719"/><stop stop-opacity="1" stop-color="rgb(25.20752%, 33.500671%, 45.881653%)" offset="0.640625"/><stop stop-opacity="1" stop-color="rgb(25.082397%, 33.268738%, 45.516968%)" offset="0.644531"/><stop stop-opacity="1" stop-color="rgb(24.95575%, 33.035278%, 45.152283%)" offset="0.648438"/><stop stop-opacity="1" stop-color="rgb(24.830627%, 32.803345%, 44.787598%)" offset="0.652344"/><stop stop-opacity="1" stop-color="rgb(24.705505%, 32.569885%, 44.422913%)" offset="0.65625"/><stop stop-opacity="1" stop-color="rgb(24.578857%, 32.336426%, 44.058228%)" offset="0.660156"/><stop stop-opacity="1" stop-color="rgb(24.453735%, 32.104492%, 43.692017%)" offset="0.664062"/><stop stop-opacity="1" stop-color="rgb(24.327087%, 31.871033%, 43.327332%)" offset="0.667969"/><stop stop-opacity="1" stop-color="rgb(24.201965%, 31.639099%, 42.962646%)" offset="0.671875"/><stop stop-opacity="1" stop-color="rgb(24.075317%, 31.40564%, 42.597961%)" offset="0.675781"/><stop stop-opacity="1" stop-color="rgb(23.950195%, 31.173706%, 42.233276%)" offset="0.679688"/><stop stop-opacity="1" stop-color="rgb(23.823547%, 30.940247%, 41.868591%)" offset="0.683594"/><stop stop-opacity="1" stop-color="rgb(23.698425%, 30.706787%, 41.503906%)" offset="0.6875"/><stop stop-opacity="1" stop-color="rgb(23.573303%, 30.474854%, 41.139221%)" offset="0.691406"/><stop stop-opacity="1" stop-color="rgb(23.446655%, 30.241394%, 40.774536%)" offset="0.695312"/><stop stop-opacity="1" stop-color="rgb(23.321533%, 30.00946%, 40.409851%)" offset="0.699219"/><stop stop-opacity="1" stop-color="rgb(23.194885%, 29.776001%, 40.04364%)" offset="0.703125"/><stop stop-opacity="1" stop-color="rgb(23.069763%, 29.544067%, 39.678955%)" offset="0.707031"/><stop stop-opacity="1" stop-color="rgb(22.943115%, 29.310608%, 39.31427%)" offset="0.710938"/><stop stop-opacity="1" stop-color="rgb(22.817993%, 29.077148%, 38.949585%)" offset="0.714844"/><stop stop-opacity="1" stop-color="rgb(22.692871%, 28.845215%, 38.5849%)" offset="0.71875"/><stop stop-opacity="1" stop-color="rgb(22.566223%, 28.611755%, 38.220215%)" offset="0.722656"/><stop stop-opacity="1" stop-color="rgb(22.441101%, 28.379822%, 37.85553%)" offset="0.726562"/><stop stop-opacity="1" stop-color="rgb(22.314453%, 28.146362%, 37.490845%)" offset="0.730469"/><stop stop-opacity="1" stop-color="rgb(22.189331%, 27.912903%, 37.12616%)" offset="0.734375"/><stop stop-opacity="1" stop-color="rgb(22.062683%, 27.680969%, 36.759949%)" offset="0.738281"/><stop stop-opacity="1" stop-color="rgb(21.937561%, 27.44751%, 36.395264%)" offset="0.742188"/><stop stop-opacity="1" stop-color="rgb(21.812439%, 27.215576%, 36.030579%)" offset="0.746094"/><stop stop-opacity="1" stop-color="rgb(21.685791%, 26.982117%, 35.665894%)" offset="0.75"/><stop stop-opacity="1" stop-color="rgb(21.560669%, 26.750183%, 35.301208%)" offset="0.753906"/><stop stop-opacity="1" stop-color="rgb(21.434021%, 26.516724%, 34.936523%)" offset="0.757812"/><stop stop-opacity="1" stop-color="rgb(21.308899%, 26.283264%, 34.571838%)" offset="0.761719"/><stop stop-opacity="1" stop-color="rgb(21.182251%, 26.051331%, 34.207153%)" offset="0.765625"/><stop stop-opacity="1" stop-color="rgb(21.057129%, 25.817871%, 33.842468%)" offset="0.769531"/><stop stop-opacity="1" stop-color="rgb(20.932007%, 25.585938%, 33.477783%)" offset="0.773438"/><stop stop-opacity="1" stop-color="rgb(20.805359%, 25.352478%, 33.111572%)" offset="0.777344"/><stop stop-opacity="1" stop-color="rgb(20.680237%, 25.120544%, 32.746887%)" offset="0.78125"/><stop stop-opacity="1" stop-color="rgb(20.553589%, 24.887085%, 32.382202%)" offset="0.785156"/><stop stop-opacity="1" stop-color="rgb(20.428467%, 24.653625%, 32.017517%)" offset="0.789062"/><stop stop-opacity="1" stop-color="rgb(20.301819%, 24.421692%, 31.652832%)" offset="0.792969"/><stop stop-opacity="1" stop-color="rgb(20.176697%, 24.188232%, 31.288147%)" offset="0.796875"/><stop stop-opacity="1" stop-color="rgb(20.051575%, 23.956299%, 30.923462%)" offset="0.800781"/><stop stop-opacity="1" stop-color="rgb(19.924927%, 23.722839%, 30.558777%)" offset="0.804688"/><stop stop-opacity="1" stop-color="rgb(19.799805%, 23.490906%, 30.194092%)" offset="0.808594"/><stop stop-opacity="1" stop-color="rgb(19.673157%, 23.257446%, 29.827881%)" offset="0.8125"/><stop stop-opacity="1" stop-color="rgb(19.548035%, 23.023987%, 29.463196%)" offset="0.816406"/><stop stop-opacity="1" stop-color="rgb(19.421387%, 22.792053%, 29.098511%)" offset="0.820312"/><stop stop-opacity="1" stop-color="rgb(19.296265%, 22.558594%, 28.733826%)" offset="0.824219"/><stop stop-opacity="1" stop-color="rgb(19.171143%, 22.32666%, 28.369141%)" offset="0.828125"/><stop stop-opacity="1" stop-color="rgb(19.044495%, 22.093201%, 28.004456%)" offset="0.832031"/><stop stop-opacity="1" stop-color="rgb(18.919373%, 21.861267%, 27.639771%)" offset="0.835938"/><stop stop-opacity="1" stop-color="rgb(18.792725%, 21.627808%, 27.275085%)" offset="0.839844"/><stop stop-opacity="1" stop-color="rgb(18.667603%, 21.394348%, 26.9104%)" offset="0.84375"/><stop stop-opacity="1" stop-color="rgb(18.540955%, 21.162415%, 26.545715%)" offset="0.847656"/><stop stop-opacity="1" stop-color="rgb(18.415833%, 20.928955%, 26.179504%)" offset="0.851562"/><stop stop-opacity="1" stop-color="rgb(18.289185%, 20.697021%, 25.814819%)" offset="0.855469"/><stop stop-opacity="1" stop-color="rgb(18.164062%, 20.463562%, 25.450134%)" offset="0.859375"/><stop stop-opacity="1" stop-color="rgb(18.03894%, 20.230103%, 25.085449%)" offset="0.863281"/><stop stop-opacity="1" stop-color="rgb(17.912292%, 19.998169%, 24.720764%)" offset="0.867188"/><stop stop-opacity="1" stop-color="rgb(17.78717%, 19.764709%, 24.356079%)" offset="0.871094"/><stop stop-opacity="1" stop-color="rgb(17.660522%, 19.532776%, 23.991394%)" offset="0.875"/><stop stop-opacity="1" stop-color="rgb(17.5354%, 19.299316%, 23.626709%)" offset="0.878906"/><stop stop-opacity="1" stop-color="rgb(17.408752%, 19.067383%, 23.262024%)" offset="0.882812"/><stop stop-opacity="1" stop-color="rgb(17.28363%, 18.833923%, 22.897339%)" offset="0.886719"/><stop stop-opacity="1" stop-color="rgb(17.158508%, 18.600464%, 22.531128%)" offset="0.890625"/><stop stop-opacity="1" stop-color="rgb(17.03186%, 18.36853%, 22.166443%)" offset="0.894531"/><stop stop-opacity="1" stop-color="rgb(16.906738%, 18.135071%, 21.801758%)" offset="0.898438"/><stop stop-opacity="1" stop-color="rgb(16.78009%, 17.903137%, 21.437073%)" offset="0.902344"/><stop stop-opacity="1" stop-color="rgb(16.654968%, 17.669678%, 21.072388%)" offset="0.90625"/><stop stop-opacity="1" stop-color="rgb(16.52832%, 17.437744%, 20.707703%)" offset="0.910156"/><stop stop-opacity="1" stop-color="rgb(16.403198%, 17.204285%, 20.343018%)" offset="0.914062"/><stop stop-opacity="1" stop-color="rgb(16.278076%, 16.970825%, 19.978333%)" offset="0.917969"/><stop stop-opacity="1" stop-color="rgb(16.151428%, 16.738892%, 19.613647%)" offset="0.921875"/><stop stop-opacity="1" stop-color="rgb(16.026306%, 16.505432%, 19.247437%)" offset="0.925781"/><stop stop-opacity="1" stop-color="rgb(15.899658%, 16.273499%, 18.882751%)" offset="0.929688"/><stop stop-opacity="1" stop-color="rgb(15.774536%, 16.040039%, 18.518066%)" offset="0.933594"/><stop stop-opacity="1" stop-color="rgb(15.647888%, 15.808105%, 18.153381%)" offset="0.9375"/><stop stop-opacity="1" stop-color="rgb(15.522766%, 15.574646%, 17.788696%)" offset="0.941406"/><stop stop-opacity="1" stop-color="rgb(15.397644%, 15.341187%, 17.424011%)" offset="0.945312"/><stop stop-opacity="1" stop-color="rgb(15.270996%, 15.109253%, 17.059326%)" offset="0.949219"/><stop stop-opacity="1" stop-color="rgb(15.145874%, 14.875793%, 16.694641%)" offset="0.953125"/><stop stop-opacity="1" stop-color="rgb(15.019226%, 14.64386%, 16.329956%)" offset="0.957031"/><stop stop-opacity="1" stop-color="rgb(14.894104%, 14.4104%, 15.965271%)" offset="0.960938"/><stop stop-opacity="1" stop-color="rgb(14.767456%, 14.178467%, 15.59906%)" offset="0.964844"/><stop stop-opacity="1" stop-color="rgb(14.642334%, 13.945007%, 15.234375%)" offset="0.96875"/><stop stop-opacity="1" stop-color="rgb(14.517212%, 13.711548%, 14.86969%)" offset="0.972656"/><stop stop-opacity="1" stop-color="rgb(14.390564%, 13.479614%, 14.505005%)" offset="0.976562"/><stop stop-opacity="1" stop-color="rgb(14.265442%, 13.246155%, 14.14032%)" offset="0.980469"/><stop stop-opacity="1" stop-color="rgb(14.138794%, 13.014221%, 13.775635%)" offset="0.984375"/><stop stop-opacity="1" stop-color="rgb(14.013672%, 12.780762%, 13.41095%)" offset="0.988281"/><stop stop-opacity="1" stop-color="rgb(13.887024%, 12.547302%, 13.046265%)" offset="0.992188"/><stop stop-opacity="1" stop-color="rgb(13.761902%, 12.315369%, 12.68158%)" offset="0.996094"/><stop stop-opacity="1" stop-color="rgb(13.699341%, 12.199402%, 12.5%)" offset="1"/></radialGradient></defs><g clip-path="url(#92bc01956c)"><g clip-path="url(#2180aea3d3)"><path fill="url(#d4d6963abd)" d="M 11.433594 94.738281 L 11.433594 280.078125 L 363.933594 280.078125 L 363.933594 94.738281 Z M 11.433594 94.738281 " fill-rule="nonzero"/></g></g><path fill="#6181b6" d="M 357.050781 187.410156 C 357.050781 188.8125 356.980469 190.214844 356.84375 191.617188 C 356.710938 193.019531 356.503906 194.421875 356.234375 195.816406 C 355.960938 197.214844 355.621094 198.605469 355.214844 199.996094 C 354.808594 201.382812 354.335938 202.765625 353.796875 204.144531 C 353.253906 205.519531 352.648438 206.890625 351.972656 208.253906 C 351.300781 209.613281 350.5625 210.96875 349.757812 212.3125 C 348.953125 213.652344 348.082031 214.988281 347.148438 216.308594 C 346.214844 217.628906 345.21875 218.941406 344.15625 220.238281 C 343.097656 221.535156 341.972656 222.816406 340.789062 224.085938 C 339.601562 225.355469 338.359375 226.609375 337.050781 227.847656 C 335.746094 229.085938 334.378906 230.304688 332.953125 231.511719 C 331.527344 232.714844 330.046875 233.902344 328.507812 235.066406 C 326.964844 236.234375 325.371094 237.382812 323.71875 238.511719 C 322.070312 239.636719 320.363281 240.746094 318.605469 241.828125 C 316.847656 242.914062 315.035156 243.976562 313.175781 245.019531 C 311.3125 246.058594 309.402344 247.074219 307.445312 248.066406 C 305.484375 249.058594 303.476562 250.027344 301.421875 250.96875 C 299.371094 251.914062 297.269531 252.832031 295.128906 253.722656 C 292.984375 254.613281 290.800781 255.476562 288.574219 256.3125 C 286.347656 257.148438 284.082031 257.957031 281.777344 258.734375 C 279.472656 259.515625 277.132812 260.265625 274.753906 260.988281 C 272.378906 261.710938 269.96875 262.402344 267.523438 263.0625 C 265.078125 263.726562 262.601562 264.355469 260.097656 264.957031 C 257.589844 265.558594 255.058594 266.125 252.496094 266.664062 C 249.9375 267.199219 247.351562 267.707031 244.742188 268.179688 C 242.132812 268.652344 239.5 269.089844 236.847656 269.5 C 234.195312 269.90625 231.523438 270.28125 228.835938 270.621094 C 226.148438 270.964844 223.445312 271.269531 220.726562 271.542969 C 218.007812 271.820312 215.277344 272.058594 212.535156 272.265625 C 209.792969 272.46875 207.042969 272.640625 204.285156 272.78125 C 201.527344 272.917969 198.761719 273.019531 195.996094 273.089844 C 193.226562 273.160156 190.457031 273.191406 187.683594 273.191406 C 184.914062 273.191406 182.140625 273.160156 179.375 273.089844 C 176.605469 273.019531 173.84375 272.917969 171.082031 272.78125 C 168.324219 272.640625 165.574219 272.46875 162.832031 272.265625 C 160.089844 272.058594 157.359375 271.820312 154.644531 271.542969 C 151.925781 271.269531 149.21875 270.964844 146.53125 270.621094 C 143.84375 270.28125 141.171875 269.90625 138.519531 269.5 C 135.867188 269.089844 133.238281 268.652344 130.625 268.179688 C 128.015625 267.707031 125.433594 267.199219 122.871094 266.664062 C 120.308594 266.125 117.777344 265.558594 115.269531 264.957031 C 112.765625 264.355469 110.289062 263.726562 107.847656 263.0625 C 105.402344 262.402344 102.992188 261.710938 100.613281 260.988281 C 98.234375 260.265625 95.894531 259.515625 93.589844 258.734375 C 91.285156 257.957031 89.019531 257.148438 86.792969 256.3125 C 84.566406 255.476562 82.382812 254.613281 80.238281 253.722656 C 78.097656 252.832031 76 251.914062 73.945312 250.96875 C 71.890625 250.027344 69.886719 249.058594 67.925781 248.066406 C 65.964844 247.074219 64.054688 246.058594 62.191406 245.019531 C 60.332031 243.976562 58.523438 242.914062 56.761719 241.828125 C 55.003906 240.746094 53.300781 239.636719 51.648438 238.511719 C 49.996094 237.382812 48.402344 236.234375 46.863281 235.066406 C 45.320312 233.902344 43.839844 232.714844 42.414062 231.511719 C 40.988281 230.304688 39.625 229.085938 38.316406 227.847656 C 37.011719 226.609375 35.765625 225.355469 34.578125 224.085938 C 33.394531 222.816406 32.273438 221.535156 31.210938 220.238281 C 30.152344 218.941406 29.152344 217.628906 28.21875 216.308594 C 27.285156 214.988281 26.417969 213.652344 25.613281 212.3125 C 24.808594 210.96875 24.066406 209.613281 23.394531 208.253906 C 22.722656 206.890625 22.113281 205.519531 21.574219 204.144531 C 21.03125 202.765625 20.558594 201.382812 20.152344 199.996094 C 19.746094 198.605469 19.40625 197.214844 19.132812 195.816406 C 18.863281 194.421875 18.660156 193.019531 18.523438 191.617188 C 18.386719 190.214844 18.320312 188.8125 18.320312 187.410156 C 18.320312 186.003906 18.386719 184.601562 18.523438 183.199219 C 18.660156 181.796875 18.863281 180.398438 19.132812 179 C 19.40625 177.601562 19.746094 176.210938 20.152344 174.820312 C 20.558594 173.433594 21.03125 172.050781 21.574219 170.671875 C 22.113281 169.296875 22.722656 167.925781 23.394531 166.566406 C 24.066406 165.203125 24.808594 163.851562 25.613281 162.507812 C 26.417969 161.164062 27.285156 159.832031 28.21875 158.507812 C 29.152344 157.1875 30.152344 155.878906 31.210938 154.582031 C 32.273438 153.285156 33.394531 152 34.578125 150.730469 C 35.765625 149.460938 37.011719 148.207031 38.316406 146.96875 C 39.625 145.730469 40.988281 144.511719 42.414062 143.308594 C 43.839844 142.101562 45.320312 140.917969 46.863281 139.75 C 48.402344 138.582031 49.996094 137.433594 51.648438 136.308594 C 53.300781 135.179688 55.003906 134.074219 56.761719 132.988281 C 58.523438 131.902344 60.332031 130.839844 62.191406 129.800781 C 64.054688 128.757812 65.964844 127.742188 67.925781 126.75 C 69.886719 125.757812 71.890625 124.789062 73.945312 123.847656 C 76 122.902344 78.097656 121.988281 80.238281 121.097656 C 82.382812 120.207031 84.566406 119.34375 86.792969 118.507812 C 89.019531 117.671875 91.285156 116.863281 93.589844 116.082031 C 95.894531 115.300781 98.234375 114.550781 100.613281 113.828125 C 102.992188 113.109375 105.402344 112.414062 107.847656 111.753906 C 110.289062 111.09375 112.765625 110.460938 115.269531 109.859375 C 117.777344 109.261719 120.308594 108.691406 122.871094 108.15625 C 125.433594 107.617188 128.015625 107.113281 130.625 106.640625 C 133.238281 106.167969 135.867188 105.726562 138.519531 105.320312 C 141.171875 104.910156 143.84375 104.535156 146.53125 104.195312 C 149.21875 103.855469 151.925781 103.546875 154.644531 103.273438 C 157.359375 103 160.089844 102.757812 162.832031 102.554688 C 165.574219 102.347656 168.324219 102.175781 171.082031 102.039062 C 173.84375 101.898438 176.605469 101.796875 179.375 101.726562 C 182.140625 101.660156 184.914062 101.625 187.683594 101.625 C 190.457031 101.625 193.226562 101.660156 195.996094 101.726562 C 198.761719 101.796875 201.527344 101.898438 204.285156 102.039062 C 207.042969 102.175781 209.792969 102.347656 212.535156 102.554688 C 215.277344 102.757812 218.007812 103 220.726562 103.273438 C 223.445312 103.546875 226.148438 103.855469 228.835938 104.195312 C 231.523438 104.535156 234.195312 104.910156 236.847656 105.320312 C 239.5 105.726562 242.132812 106.167969 244.742188 106.640625 C 247.351562 107.113281 249.9375 107.617188 252.496094 108.15625 C 255.058594 108.691406 257.589844 109.261719 260.097656 109.859375 C 262.601562 110.460938 265.078125 111.09375 267.523438 111.753906 C 269.96875 112.414062 272.378906 113.109375 274.753906 113.828125 C 277.132812 114.550781 279.472656 115.300781 281.777344 116.082031 C 284.082031 116.863281 286.347656 117.671875 288.574219 118.507812 C 290.800781 119.34375 292.984375 120.207031 295.128906 121.097656 C 297.269531 121.988281 299.371094 122.902344 301.421875 123.847656 C 303.476562 124.789062 305.484375 125.757812 307.445312 126.75 C 309.402344 127.742188 311.3125 128.757812 313.175781 129.800781 C 315.035156 130.839844 316.847656 131.902344 318.605469 132.988281 C 320.363281 134.074219 322.070312 135.179688 323.71875 136.308594 C 325.371094 137.433594 326.964844 138.582031 328.507812 139.75 C 330.046875 140.917969 331.527344 142.101562 332.953125 143.308594 C 334.378906 144.511719 335.746094 145.730469 337.050781 146.96875 C 338.359375 148.207031 339.601562 149.460938 340.789062 150.730469 C 341.972656 152 343.097656 153.285156 344.15625 154.582031 C 345.21875 155.878906 346.214844 157.1875 347.148438 158.507812 C 348.082031 159.832031 348.953125 161.164062 349.757812 162.507812 C 350.5625 163.851562 351.300781 165.203125 351.972656 166.566406 C 352.648438 167.925781 353.253906 169.296875 353.796875 170.671875 C 354.335938 172.050781 354.808594 173.433594 355.214844 174.820312 C 355.621094 176.210938 355.960938 177.601562 356.234375 179 C 356.503906 180.398438 356.710938 181.796875 356.84375 183.199219 C 356.980469 184.601562 357.050781 186.003906 357.050781 187.410156 Z M 357.050781 187.410156 " fill-opacity="1" fill-rule="nonzero"/><path fill="#ffffff" d="M 221.96875 215.222656 C 221.96875 215.222656 230.371094 171.988281 230.371094 171.988281 C 232.296875 162.210938 230.644531 154.914062 225.6875 150.367188 C 220.867188 145.960938 212.605469 143.757812 200.488281 143.757812 L 185.894531 143.757812 L 190.023438 122.277344 C 190.164062 121.453125 190.023438 120.625 189.472656 119.9375 C 188.921875 119.25 188.234375 118.972656 187.410156 118.972656 L 167.304688 118.972656 C 165.929688 118.972656 164.828125 119.9375 164.550781 121.175781 L 155.601562 167.03125 C 154.773438 161.796875 152.847656 157.390625 149.542969 153.8125 C 143.621094 147.0625 134.394531 143.621094 121.867188 143.621094 L 83.171875 143.621094 C 81.796875 143.621094 80.695312 144.585938 80.417969 145.824219 L 62.382812 238.90625 C 62.242188 239.734375 62.382812 240.558594 62.933594 241.246094 C 63.484375 241.9375 64.171875 242.210938 64.996094 242.210938 L 85.238281 242.210938 C 86.617188 242.210938 87.71875 241.246094 87.992188 240.007812 L 92.398438 217.5625 L 107.40625 217.5625 C 115.257812 217.5625 122.003906 216.738281 127.097656 215.085938 C 132.46875 213.296875 137.289062 210.402344 141.554688 206.410156 C 145 203.242188 147.890625 199.664062 150.09375 195.808594 L 146.511719 214.398438 C 146.375 215.222656 146.511719 216.050781 147.0625 216.738281 C 147.613281 217.425781 148.304688 217.703125 149.128906 217.703125 L 169.234375 217.703125 C 170.609375 217.703125 171.710938 216.738281 171.988281 215.5 L 181.902344 164.550781 L 195.671875 164.550781 C 201.589844 164.550781 203.242188 165.652344 203.792969 166.203125 C 204.207031 166.617188 205.035156 168.269531 204.070312 173.363281 L 196.082031 214.535156 C 195.945312 215.359375 196.082031 216.1875 196.632812 216.875 C 197.183594 217.5625 197.875 217.839844 198.699219 217.839844 L 219.355469 217.839844 C 220.59375 217.425781 221.695312 216.460938 221.96875 215.222656 Z M 128.886719 179.421875 C 127.648438 185.894531 125.308594 190.574219 121.867188 193.191406 C 118.421875 195.808594 112.777344 197.183594 105.34375 197.183594 L 96.390625 197.183594 L 102.863281 163.863281 L 114.429688 163.863281 C 122.96875 163.863281 126.410156 165.652344 127.785156 167.167969 C 129.578125 169.371094 129.988281 173.640625 128.886719 179.421875 Z M 128.886719 179.421875 " fill-opacity="1" fill-rule="nonzero"/><path fill="#ffffff" d="M 307.890625 153.8125 C 301.972656 147.0625 292.746094 143.621094 280.214844 143.621094 L 241.246094 143.621094 C 239.871094 143.621094 238.769531 144.585938 238.492188 145.824219 L 220.457031 238.769531 C 220.316406 239.59375 220.457031 240.421875 221.007812 241.109375 C 221.558594 241.796875 222.246094 242.074219 223.070312 242.074219 L 243.3125 242.074219 C 244.691406 242.074219 245.792969 241.109375 246.066406 239.871094 L 250.472656 217.425781 L 265.480469 217.425781 C 273.332031 217.425781 280.078125 216.601562 285.171875 214.949219 C 290.542969 213.15625 295.363281 210.265625 299.628906 206.273438 C 303.210938 202.96875 306.238281 199.25 308.441406 195.257812 C 310.644531 191.265625 312.296875 186.859375 313.261719 182.039062 C 315.601562 170.058594 313.8125 160.695312 307.890625 153.8125 Z M 286.824219 179.421875 C 285.585938 185.894531 283.246094 190.574219 279.800781 193.191406 C 276.359375 195.808594 270.714844 197.183594 263.277344 197.183594 L 254.328125 197.183594 L 260.800781 163.863281 L 272.367188 163.863281 C 280.902344 163.863281 284.347656 165.652344 285.722656 167.167969 C 287.652344 169.371094 288.0625 173.640625 286.824219 179.421875 Z M 286.824219 179.421875 " fill-opacity="1" fill-rule="nonzero"/><path fill="#000004" d="M 114.429688 161.109375 C 122.140625 161.109375 127.234375 162.484375 129.851562 165.378906 C 132.46875 168.269531 133.019531 173.089844 131.640625 179.972656 C 130.265625 187.132812 127.511719 192.367188 123.519531 195.394531 C 119.523438 198.425781 113.464844 199.9375 105.34375 199.9375 L 93.085938 199.9375 L 100.660156 161.109375 Z M 65.136719 239.320312 L 85.375 239.320312 L 90.195312 214.671875 L 107.546875 214.671875 C 115.257812 214.671875 121.453125 213.847656 126.410156 212.195312 C 131.367188 210.542969 135.773438 207.925781 139.902344 204.070312 C 143.347656 200.902344 146.101562 197.460938 148.164062 193.742188 C 150.230469 190.023438 151.746094 185.894531 152.570312 181.351562 C 154.773438 170.335938 153.121094 161.796875 147.753906 155.601562 C 142.382812 149.40625 133.84375 146.375 122.140625 146.375 L 83.171875 146.375 Z M 65.136719 239.320312 " fill-opacity="1" fill-rule="nonzero"/><path fill="#000004" d="M 167.441406 121.726562 L 187.546875 121.726562 L 182.726562 146.375 L 200.628906 146.375 C 211.917969 146.375 219.628906 148.304688 223.898438 152.296875 C 228.167969 156.289062 229.40625 162.625 227.753906 171.4375 L 219.355469 214.671875 L 198.976562 214.671875 L 206.960938 173.5 C 207.925781 168.820312 207.511719 165.652344 205.996094 164 C 204.484375 162.347656 201.039062 161.382812 195.945312 161.382812 L 179.835938 161.382812 L 169.507812 214.671875 L 149.40625 214.671875 Z M 167.441406 121.726562 " fill-opacity="1" fill-rule="nonzero"/><path fill="#000004" d="M 272.367188 161.109375 C 280.078125 161.109375 285.171875 162.484375 287.789062 165.378906 C 290.40625 168.269531 290.957031 173.089844 289.578125 179.972656 C 288.203125 187.132812 285.449219 192.367188 281.453125 195.394531 C 277.460938 198.425781 271.402344 199.9375 263.277344 199.9375 L 251.023438 199.9375 L 258.597656 161.109375 Z M 223.070312 239.320312 L 243.3125 239.320312 L 248.132812 214.671875 L 265.480469 214.671875 C 273.191406 214.671875 279.390625 213.847656 284.347656 212.195312 C 289.304688 210.542969 293.710938 207.925781 297.839844 204.070312 C 301.28125 200.902344 304.035156 197.460938 306.101562 193.742188 C 308.167969 190.023438 309.683594 185.894531 310.507812 181.351562 C 312.710938 170.335938 311.058594 161.796875 305.6875 155.601562 C 300.320312 149.40625 291.78125 146.375 280.078125 146.375 L 241.109375 146.375 Z M 223.070312 239.320312 " fill-opacity="1" fill-rule="nonzero"/></svg>